<?xml version="1.0" encoding="UTF-8"?>
<svg id="Layer_2" data-name="Layer 2" xmlns="http://www.w3.org/2000/svg" viewBox="0 0 40.7 484.51">
  <defs>
    <style>
      .cls-1 {
        fill: #fff;
      }
    </style>
  </defs>
  <g id="Layer_1-2" data-name="Layer 1">
    <g>
      <path class="cls-1" d="M39.63,340.91v16.57H1.17v-16.57c.04-2.38,.31-4.37,.83-5.95,.89-2.7,2.51-4.88,4.88-6.55,1.91-1.34,3.98-2.25,6.21-2.74,2.23-.49,4.35-.73,6.37-.73,5.11,0,9.45,1.03,12.99,3.08,4.78,2.78,7.18,7.08,7.18,12.89Zm-28.65-5.98c-2.09,1.24-3.13,3.68-3.13,7.33v7.41h25.1v-7.41c0-3.79-1.87-6.44-5.61-7.93-2.05-.82-4.5-1.23-7.33-1.23-3.91,0-6.92,.61-9.03,1.83Z"/>
      <path class="cls-1" d="M22.83,287.84v18.68h9.89v-21.29h6.91v29.14H1.17v-28.21H7.98v20.35h8.17v-18.68h6.68Z"/>
      <path class="cls-1" d="M1.17,277.54v-8.58l29.2-8.35L1.17,252.18v-8.35l38.46,13.12v7.59L1.17,277.54Z"/>
      <path class="cls-1" d="M22.83,208.01v18.68h9.89v-21.29h6.91v29.14H1.17v-28.21H7.98v20.35h8.17v-18.68h6.68Z"/>
      <path class="cls-1" d="M1.17,194.87v-8.04h31.55v-19.05h6.91v27.08H1.17Z"/>
      <path class="cls-1" d="M40.7,140.94c0,5.5-1.5,9.7-4.49,12.6-3.67,3.9-8.96,5.84-15.86,5.84s-12.33-1.95-15.86-5.84c-2.99-2.91-4.49-7.11-4.49-12.6s1.5-9.7,4.49-12.6c3.53-3.88,8.82-5.82,15.86-5.82s12.19,1.94,15.86,5.82c2.99,2.91,4.49,7.11,4.49,12.6Zm-10.33-7.59c-2.35-1.86-5.69-2.79-10.02-2.79s-7.65,.93-10.01,2.8-3.54,4.4-3.54,7.58,1.17,5.72,3.52,7.62c2.35,1.9,5.69,2.84,10.02,2.84s7.67-.95,10.02-2.84c2.35-1.9,3.52-4.44,3.52-7.62s-1.17-5.71-3.52-7.59Z"/>
      <path class="cls-1" d="M25.8,95.78v8.17h13.83v7.98H1.17v-16.75c0-3.86,.99-6.94,2.97-9.24,1.98-2.3,5.05-3.44,9.21-3.44,4.54,0,7.75,1.15,9.63,3.44,1.88,2.3,2.82,5.58,2.82,9.84Zm-8.01-3.76c-.92-1.04-2.38-1.57-4.38-1.57s-3.43,.53-4.28,1.58c-.85,1.05-1.28,2.53-1.28,4.42v7.49h11.32v-7.49c0-1.9-.46-3.37-1.38-4.44Z"/>
      <path class="cls-1" d="M22.83,45.42v18.68h9.89v-21.29h6.91v29.14H1.17v-28.21H7.98v20.35h8.17v-18.68h6.68Z"/>
      <path class="cls-1" d="M24.55,15.94v8.3h15.08v7.85H1.17V13.23c.05-2.7,.38-4.77,.99-6.22,.61-1.45,1.5-2.68,2.69-3.69,.97-.83,2.05-1.5,3.24-1.98,1.18-.49,2.53-.73,4.04-.73,1.83,0,3.62,.46,5.39,1.38,1.77,.92,3.01,2.44,3.74,4.57,.71-1.77,1.73-3.03,3.04-3.77s3.32-1.11,6.01-1.11h2.58c1.76,0,2.95-.07,3.57-.21,.99-.21,1.72-.7,2.19-1.46h.97V8.85c-.85,.24-1.54,.42-2.06,.52-1.08,.21-2.18,.32-3.31,.34l-3.57,.05c-2.45,.04-4.09,.48-4.91,1.34s-1.23,2.47-1.23,4.84Zm-6.99-4.88c-.73-1.6-2.17-2.4-4.33-2.4-2.33,0-3.9,.77-4.7,2.32-.45,.87-.68,2.17-.68,3.91v9.34h10.33V15.13c0-1.81-.21-3.17-.63-4.07Z"/>
    </g>
    <rect class="cls-1" x="17.85" y="378.91" width="3.5px" height="105.6"/>
  </g>
</svg>