<?xml version="1.0" encoding="UTF-8"?>
<svg id="Layer_2" data-name="Layer 2" xmlns="http://www.w3.org/2000/svg" viewBox="0 0 45.3 482.06">
  <defs>
    <style>
      .cls-1 {
        fill: #101014;
      }
    </style>
  </defs>
  <g id="Layer_1-2" data-name="Layer 1">
    <rect class="cls-1" x="20.83" width="3.5px" height="105.6"/>
    <g>
      <path d="M36.42,155.43v-21.46h-9.84v18.79h-7.44v-18.79H1.19v-8.89H43.94v30.35h-7.52Z"/>
      <path d="M17.98,184.35v-9.24H1.19v-8.74H44v21c-.06,3-.43,5.31-1.1,6.93-.68,1.62-1.67,2.99-2.99,4.11-1.08,.93-2.29,1.67-3.6,2.21s-2.82,.81-4.5,.81c-2.03,0-4.03-.51-6-1.54-1.97-1.03-3.35-2.72-4.17-5.08-.79,1.97-1.92,3.37-3.38,4.2-1.46,.82-3.69,1.23-6.69,1.23h-2.88c-1.96,0-3.28,.08-3.98,.23-1.1,.23-1.92,.77-2.44,1.63H1.19v-9.84c.95-.27,1.71-.46,2.29-.58,1.2-.23,2.43-.36,3.69-.38l3.98-.06c2.73-.04,4.55-.54,5.46-1.5,.91-.96,1.37-2.75,1.37-5.39Zm7.78,5.43c.81,1.78,2.42,2.67,4.82,2.67,2.59,0,4.34-.86,5.23-2.58,.5-.97,.76-2.42,.76-4.36v-10.4h-11.5v10.14c0,2.01,.23,3.52,.7,4.53Z"/>
      <path d="M0,232.81c0-6.12,1.67-10.79,5-14.03,4.08-4.34,9.97-6.5,17.66-6.5s13.73,2.17,17.66,6.5c3.33,3.23,5,7.91,5,14.03s-1.67,10.79-5,14.03c-3.93,4.32-9.82,6.48-17.66,6.48s-13.57-2.16-17.66-6.48c-3.33-3.23-5-7.91-5-14.03Zm11.5,8.45c2.61,2.07,6.33,3.11,11.15,3.11s8.51-1.04,11.14-3.12c2.62-2.08,3.93-4.89,3.93-8.44s-1.31-6.37-3.92-8.48c-2.61-2.11-6.33-3.17-11.15-3.17s-8.54,1.05-11.15,3.17c-2.61,2.11-3.92,4.94-3.92,8.48s1.31,6.36,3.92,8.45Z"/>
      <path d="M1.19,299.52v-8.95l30.41-17.48H1.19v-8.33H44v9.38l-29.88,17.05h29.88v8.33H1.19Z"/>
      <path d="M44,343.71h-7.58v-12.81H1.19v-9H36.42v-12.87h7.58v34.68Z"/>
      <path d="M19.89,383.5v-20.79H8.89v23.7H1.19v-32.44H44v31.39h-7.58v-22.65h-9.09v20.79h-7.43Z"/>
      <path d="M1.19,432.75v-8.95l30.41-17.48H1.19v-8.33H44v9.38l-29.88,17.05h29.88v8.33H1.19Z"/>
      <path d="M1.19,464.28v-18.44H44v18.44c-.04,2.65-.35,4.86-.93,6.62-.99,3-2.8,5.43-5.43,7.29-2.13,1.49-4.43,2.51-6.91,3.05-2.48,.54-4.84,.81-7.09,.81-5.69,0-10.51-1.14-14.46-3.43-5.32-3.1-7.99-7.88-7.99-14.35Zm31.89,6.65c2.32-1.38,3.49-4.09,3.49-8.16v-8.25H8.62v8.25c0,4.22,2.08,7.16,6.24,8.83,2.28,.91,5,1.37,8.16,1.37,4.36,0,7.71-.68,10.05-2.03Z"/>
    </g>
  </g>
</svg>