<?xml version="1.0" encoding="UTF-8"?>
<svg id="Layer_2" data-name="Layer 2" xmlns="http://www.w3.org/2000/svg" viewBox="0 0 397.25 283.17">
  <defs>
    <style>
      .cls-1 {
        fill: #0e0e14;
      }

      .cls-2 {
        fill: none;
        stroke: #fff;
        stroke-miterlimit: 10;
        stroke-width: 3.6px;
      }

      .line1 ,  .line2 , .line3 , .line4 , .line5 , .line6{
        animation: offset 2s forwards;
      }

      .line1{
        stroke-dasharray: 217.673px;
        stroke-dashoffset: 217.673px;
      }

      .line2{
        stroke-dasharray: 180.359px;
        stroke-dashoffset: 180.359px;
      }


      .line3{
        stroke-dasharray: 146.327px;
        stroke-dashoffset: 146.327px;
      }

      .line4{
        stroke-dasharray: 232.656px;
        stroke-dashoffset: 232.656px;
      }

      .line5{
        stroke-dasharray: 430.039px;
        stroke-dashoffset: 430.039px;
      }

      .line6{
        stroke-dasharray: 200.016px;
        stroke-dashoffset: 200.016px;
      }



      @keyframes offset{
        to{
            stroke-dashoffset: 0px;
        }
      }

    </style>
  </defs>
  <g id="Layer_1-2" data-name="Layer 1">
    <polyline class="cls-2 line1" points="388.56 14.2 388.34 100.19 306.86 175.79"/>
    <polyline class="cls-2 line2" points="361.05 13.15 360.71 90.19 309.08 137.15"/>
    <line class="cls-2 line3" x1="316.29" y1="95.13" x2="214.42" y2="181.77"/>
    <polyline class="cls-2 line4" points="272.82 96.39 186.52 169.4 149.97 265.26"/>
    <polyline class="cls-2 line5" points="317.58 18.42 106.6 206.91 13.58 206.87"/>
    <polyline class="cls-2 line6" points="168.26 114.41 98.55 179.35 18.46 179.45"/>
    <path class="cls-1" d="M208.94,178.62c5.53,0,10.03,4.5,10.03,10.03s-4.5,10.03-10.03,10.03-10.03-4.5-10.03-10.03,4.5-10.03,10.03-10.03Zm0,16.37c3.5,0,6.34-2.84,6.34-6.34s-2.84-6.34-6.34-6.34-6.34,2.84-6.34,6.34,2.84,6.34,6.34,6.34Z"/>
    <path class="cls-1" d="M321,79.87c5.53,0,10.03,4.5,10.03,10.03s-4.5,10.03-10.03,10.03-10.03-4.5-10.03-10.03,4.5-10.03,10.03-10.03Zm0,16.37c3.5,0,6.34-2.84,6.34-6.34s-2.84-6.34-6.34-6.34-6.34,2.84-6.34,6.34,2.84,6.34,6.34,6.34Z"/>
    <circle class="cls-1" cx="389.07" cy="9.16" r="8.18"/>
    <path class="cls-1" d="M302.68,130.97c5.53,0,10.03,4.5,10.03,10.03s-4.5,10.03-10.03,10.03-10.03-4.5-10.03-10.03,4.5-10.03,10.03-10.03Zm0,16.37c3.5,0,6.34-2.84,6.34-6.34s-2.84-6.34-6.34-6.34-6.34,2.84-6.34,6.34,2.84,6.34,6.34,6.34Z"/>
    <path class="cls-1" d="M353.54,0h14.65V14.03h-14.65V0Zm10.96,3.69h-7.27v6.65h7.27V3.69Z"/>
    <path class="cls-1" d="M147.56,263.12c5.53,0,10.03,4.5,10.03,10.03s-4.5,10.03-10.03,10.03-10.03-4.5-10.03-10.03,4.5-10.03,10.03-10.03Zm0,16.37c3.5,0,6.34-2.84,6.34-6.34s-2.84-6.34-6.34-6.34-6.34,2.84-6.34,6.34,2.84,6.34,6.34,6.34Z"/>
    <g>
      <rect class="cls-1" x="269.87" y="88.71" width="10.34" height="10.96" transform="translate(180.85 369.23) rotate(-90)"/>
      <path class="cls-1" d="M268.64,88.1h12.8v12.18h-12.8v-12.18Zm10.96,1.84h-9.12v8.49h9.12v-8.49Z"/>
    </g>
    <path class="cls-1" d="M313.62,7.98h14.65v14.03h-14.65V7.98Zm10.96,3.69h-7.27v6.65h7.27v-6.65Z"/>
    <path class="cls-1" d="M293.97,172.88h14.65v14.03h-14.65v-14.03Zm10.96,3.69h-7.27v6.65h7.27v-6.65Z"/>
    <g>
      <rect class="cls-1" x="2.32" y="201.31" width="10.34" height="10.96" transform="translate(-199.3 214.28) rotate(-90)"/>
      <path class="cls-1" d="M1.09,200.7H13.89v12.18H1.09v-12.18Zm10.96,1.84H2.93v8.5H12.05v-8.5Z"/>
    </g>
    <path class="cls-1" d="M10.03,169.46c5.53,0,10.03,4.5,10.03,10.03s-4.5,10.03-10.03,10.03-10.03-4.5-10.03-10.03,4.5-10.03,10.03-10.03Zm0,16.37c3.5,0,6.34-2.84,6.34-6.34s-2.84-6.34-6.34-6.34-6.34,2.84-6.34,6.34,2.84,6.34,6.34,6.34Z"/>
    <path class="cls-1" d="M172.51,98.43c5.53,0,10.03,4.5,10.03,10.03s-4.5,10.03-10.03,10.03-10.03-4.5-10.03-10.03,4.5-10.03,10.03-10.03Zm0,16.37c3.5,0,6.34-2.84,6.34-6.34s-2.84-6.34-6.34-6.34-6.34,2.84-6.34,6.34,2.84,6.34,6.34,6.34Z"/>
  </g>
</svg>