<?xml version="1.0" encoding="UTF-8"?>
<svg id="Layer_2" data-name="Layer 2" xmlns="http://www.w3.org/2000/svg" viewBox="0 0 403.41 283.17">
  <defs>
    <style>
      .cls-1 {
        fill: #3ec6ac;
      }
      
      .cls-2 {
        fill: none;
        stroke: #fff;
        stroke-miterlimit: 10;
        stroke-width: 3.6px;
      }

      .line1 ,  .line2 , .line3 , .line4 , .line5 , .line6{
        animation: offset 2s forwards;
      }

      .line1{
        stroke-dasharray: 217.673px;
        stroke-dashoffset: 217.673px;
      }

      .line2{
        stroke-dasharray: 180.359px;
        stroke-dashoffset: 180.359px;
      }


      .line3{
        stroke-dasharray: 146.327px;
        stroke-dashoffset: 146.327px;
      }

      .line4{
        stroke-dasharray: 232.656px;
        stroke-dashoffset: 232.656px;
      }

      .line5{
        stroke-dasharray: 430.039px;
        stroke-dashoffset: 430.039px;
      }

      .line6{
        stroke-dasharray: 200.016px;
        stroke-dashoffset: 200.016px;
      }



      @keyframes offset{
        to{
            stroke-dashoffset: 0px;
        }
      }

    </style>
  </defs>
  <g id="Layer_1-2" data-name="Layer 1">
    <polyline class="cls-2 line1" points="8.69 268.97 8.91 182.98 90.39 107.38"/>
    <polyline class="cls-2 line2" points="36.2 270.02 36.54 192.99 100.27 134.56"/>
    <line class="cls-2 line3" x1="80.96" y1="188.05" x2="182.83" y2="101.4"/>
    <polyline class="cls-2 line4" points="124.43 186.78 210.73 113.77 247.28 17.91"/>
    <polyline class="cls-2 line5" points="79.67 264.75 290.65 76.26 383.67 76.31"/>
    <polyline class="cls-2 line6" points="228.99 168.76 298.7 103.82 384.64 103.72"/>
    <path class="cls-1" d="M188.31,104.55c-5.53,0-10.03-4.5-10.03-10.03s4.5-10.03,10.03-10.03,10.03,4.5,10.03,10.03-4.5,10.03-10.03,10.03Zm0-16.37c-3.5,0-6.34,2.84-6.34,6.34s2.84,6.34,6.34,6.34,6.34-2.84,6.34-6.34-2.84-6.34-6.34-6.34Z"/>
    <path class="cls-1" d="M76.25,203.3c-5.53,0-10.03-4.5-10.03-10.03s4.5-10.03,10.03-10.03,10.03,4.5,10.03,10.03-4.5,10.03-10.03,10.03Zm0-16.37c-3.5,0-6.34,2.84-6.34,6.34s2.84,6.34,6.34,6.34,6.34-2.84,6.34-6.34-2.84-6.34-6.34-6.34Z"/>
    <circle class="cls-1" cx="8.18" cy="274.02" r="8.18"/>
    <path class="cls-1" d="M107.68,139.09c-5.53,0-10.03-4.5-10.03-10.03s4.5-10.03,10.03-10.03,10.03,4.5,10.03,10.03-4.5,10.03-10.03,10.03Zm0-16.37c-3.5,0-6.34,2.84-6.34,6.34s2.84,6.34,6.34,6.34,6.34-2.84,6.34-6.34-2.84-6.34-6.34-6.34Z"/>
    <path class="cls-1" d="M43.71,283.17h-14.65v-14.03h14.65v14.03Zm-10.96-3.69h7.27v-6.65h-7.27v6.65Z"/>
    <path class="cls-1" d="M249.69,20.06c-5.53,0-10.03-4.5-10.03-10.03s4.5-10.03,10.03-10.03,10.03,4.5,10.03,10.03-4.5,10.03-10.03,10.03Zm0-16.37c-3.5,0-6.34,2.84-6.34,6.34s2.84,6.34,6.34,6.34,6.34-2.84,6.34-6.34-2.84-6.34-6.34-6.34Z"/>
    <g>
      <rect class="cls-1" x="116.88" y="182.64" width="10.34" height="10.96" transform="translate(310.17 66.08) rotate(90)"/>
      <path class="cls-1" d="M128.45,194.21h-12.8v-12.18h12.8v12.18Zm-10.96-1.84h9.12v-8.49h-9.12v8.49Z"/>
    </g>
    <path class="cls-1" d="M83.63,275.2h-14.65v-14.03h14.65v14.03Zm-10.96-3.69h7.27v-6.65h-7.27v6.65Z"/>
    <path class="cls-1" d="M103.28,110.29h-14.65v-14.03h14.65v14.03Zm-10.96-3.69h7.27v-6.65h-7.27v6.65Z"/>
    <g>
      <rect class="cls-1" x="384.59" y="70.9" width="10.34" height="10.96" transform="translate(466.14 -313.38) rotate(90)"/>
      <path class="cls-1" d="M396.16,82.47h-12.8v-12.18h12.8v12.18Zm-10.96-1.84h9.12v-8.5h-9.12v8.5Z"/>
    </g>
    <path class="cls-1" d="M393.39,113.71c-5.53,0-10.03-4.5-10.03-10.03s4.5-10.03,10.03-10.03,10.03,4.5,10.03,10.03-4.5,10.03-10.03,10.03Zm0-16.37c-3.5,0-6.34,2.84-6.34,6.34s2.84,6.34,6.34,6.34,6.34-2.84,6.34-6.34-2.84-6.34-6.34-6.34Z"/>
    <path class="cls-1" d="M224.74,184.74c-5.53,0-10.03-4.5-10.03-10.03s4.5-10.03,10.03-10.03,10.03,4.5,10.03,10.03-4.5,10.03-10.03,10.03Zm0-16.37c-3.5,0-6.34,2.84-6.34,6.34s2.84,6.34,6.34,6.34,6.34-2.84,6.34-6.34-2.84-6.34-6.34-6.34Z"/>
  </g>
</svg>