<?xml version="1.0" encoding="UTF-8"?>
<svg id="Layer_2" data-name="Layer 2" xmlns="http://www.w3.org/2000/svg" viewBox="0 0 417.01 287">
  <defs>
    <style>
      .cls-1 {
        fill: #fff;
      }

      .cls-2 {
        fill: #3ec6ac;
      }
    </style>
  </defs>
  <g id="Layer_1-2" data-name="Layer 1">
    <polygon class="cls-1" points="53.32 287 0 286.61 .02 283.83 52.27 284.22 355.36 15.29 357.2 17.37 53.32 287"/>
    <rect class="cls-1" x="167.8" y="173.78" width="192.33" height="2.77" transform="translate(-50.36 214.62) rotate(-40.72)"/>
    <rect class="cls-1" x="325.35" y="147.77" width="104.48" height="2.77" transform="translate(-1.45 294.59) rotate(-42.55)"/>
    <rect class="cls-1" x="328.83" y="204.76" width="99.91" height="2.77" transform="translate(-39.16 312.42) rotate(-42.82)"/>
    <path class="cls-2" d="M329.82,207.88c-7.75,0-14.06-6.31-14.06-14.06s6.31-14.06,14.06-14.06,14.06,6.31,14.06,14.06-6.31,14.06-14.06,14.06Zm0-25.34c-6.22,0-11.28,5.06-11.28,11.28s5.06,11.28,11.28,11.28,11.28-5.06,11.28-11.28-5.06-11.28-11.28-11.28Z"/>
    <path class="cls-2" d="M346.11,117.67c-7.75,0-14.06-6.31-14.06-14.06s6.31-14.06,14.06-14.06,14.06,6.31,14.06,14.06-6.31,14.06-14.06,14.06Zm0-25.34c-6.22,0-11.28,5.06-11.28,11.28s5.06,11.28,11.28,11.28,11.28-5.06,11.28-11.28-5.06-11.28-11.28-11.28Z"/>
    <path class="cls-2" d="M180.62,259.66c-7.75,0-14.06-6.31-14.06-14.06s6.31-14.06,14.06-14.06,14.06,6.31,14.06,14.06-6.31,14.06-14.06,14.06Zm0-25.34c-6.22,0-11.28,5.06-11.28,11.28s5.06,11.28,11.28,11.28,11.28-5.06,11.28-11.28-5.06-11.28-11.28-11.28Z"/>
    <path class="cls-2" d="M343.63,256.71h-18.82v-18.07h18.82v18.07Zm-16.05-2.77h13.27v-12.53h-13.27v12.53Z"/>
    <path class="cls-2" d="M374.08,18.07h-18.82V0h18.82V18.07Zm-16.05-2.77h13.27V2.77h-13.27V15.3Z"/>
  </g>
</svg>