<?xml version="1.0" encoding="UTF-8"?>
<svg id="Layer_2" data-name="Layer 2" xmlns="http://www.w3.org/2000/svg" xmlns:xlink="http://www.w3.org/1999/xlink" viewBox="0 0 187.41 59">
  <defs>
    <style>
      .cls-1 {
        clip-path: url(#clippath);
      }

      .cls-2, .cls-3 {
        fill: #fff;
      }

      .cls-4 {
        clip-path: url(#clippath-2);
      }

      .cls-3 {
        clip-path: url(#clippath-1);
      }
    </style>
    <clipPath id="clippath">
      <path class="cls-2" d="M22.73,59L9.8,12.71h-.33c.47,9.42,.7,15.7,.7,18.85v27.44H0V0H15.49l12.7,45.12h.22L41.9,0h15.49V59h-10.61V31.07c0-1.32,.02-2.84,.06-4.56s.2-6.3,.5-13.72h-.33l-13.84,46.21h-10.43Z"/>
    </clipPath>
    <clipPath id="clippath-1">
      <path class="cls-2" d="M154.99,36.36v22.64h-11.72V0h16.1c7.51,0,13.07,1.46,16.67,4.38,3.6,2.92,5.4,7.35,5.4,13.3,0,3.47-.89,6.56-2.68,9.26-1.79,2.7-4.32,4.82-7.6,6.36,8.32,13.26,13.73,21.83,16.25,25.71h-13l-13.19-22.64h-6.24Z"/>
    </clipPath>
    <clipPath id="clippath-2">
      <path class="cls-3" d="M154.99,26.19h3.78c3.7,0,6.44-.66,8.2-1.98,1.76-1.32,2.65-3.39,2.65-6.21s-.9-4.79-2.7-5.97c-1.8-1.18-4.59-1.78-8.37-1.78h-3.55v15.94Z"/>
    </clipPath>
  </defs>
  <g id="Layer_1-2" data-name="Layer 1">
    <g>
      <path class="cls-2" d="M22.73,59L9.8,12.71h-.33c.47,9.42,.7,15.7,.7,18.85v27.44H0V0H15.49l12.7,45.12h.22L41.9,0h15.49V59h-10.61V31.07c0-1.32,.02-2.84,.06-4.56s.2-6.3,.5-13.72h-.33l-13.84,46.21h-10.43Z"/>
      <g class="cls-1">
        <rect class="cls-2" x="-1" y="-1" width="59.39" height="61"/>
      </g>
    </g>
    <g>
      <path class="cls-2" d="M154.99,36.36v22.64h-11.72V0h16.1c7.51,0,13.07,1.46,16.67,4.38,3.6,2.92,5.4,7.35,5.4,13.3,0,3.47-.89,6.56-2.68,9.26-1.79,2.7-4.32,4.82-7.6,6.36,8.32,13.26,13.73,21.83,16.25,25.71h-13l-13.19-22.64h-6.24Z"/>
      <path class="cls-2" d="M154.99,26.19h3.78c3.7,0,6.44-.66,8.2-1.98,1.76-1.32,2.65-3.39,2.65-6.21s-.9-4.79-2.7-5.97c-1.8-1.18-4.59-1.78-8.37-1.78h-3.55v15.94Z"/>
      <g class="cls-4">
        <rect class="cls-2" x="142.27" y="-1" width="46.15" height="61"/>
      </g>
    </g>
    <polygon class="cls-2" points="128.96 1.18 128.96 14.79 79.06 30.03 128.84 45.03 128.96 58.87 69.87 37.59 69.87 22.35 128.96 1.18"/>
  </g>
</svg>