<?xml version="1.0" encoding="UTF-8"?>
<svg id="Layer_2" data-name="Layer 2" xmlns="http://www.w3.org/2000/svg" viewBox="0 0 391 269.1">
  <defs>
    <style>
      .cls-1 {
        fill: #fff;
      }

      .cls-2 {
        fill: #3ec6ac;
      }
    </style>
  </defs>
  <g id="Layer_1-2" data-name="Layer 1">
    <polygon class="cls-1" points="39.82 230.88 .74 230.88 .74 228.28 38.8 228.28 130.86 142.39 132.63 144.29 39.82 230.88"/>
    <polygon class="cls-1" points="49.99 269.1 0 268.73 .02 266.13 49.01 266.49 333.19 14.34 334.91 16.28 49.99 269.1"/>
    <rect class="cls-1" x="157.33" y="162.93" width="180.33" height="2.6" transform="translate(-47.22 201.23) rotate(-40.72)"/>
    <rect class="cls-1" x="305.05" y="138.56" width="97.96" height="2.6" transform="translate(-1.36 276.21) rotate(-42.55)"/>
    <rect class="cls-1" x="308.32" y="191.98" width="93.67" height="2.6" transform="translate(-36.72 292.93) rotate(-42.82)"/>
    <path class="cls-2" d="M309.24,194.92c-7.27,0-13.18-5.91-13.18-13.18s5.91-13.18,13.18-13.18,13.18,5.91,13.18,13.18-5.91,13.18-13.18,13.18Zm0-23.76c-5.83,0-10.58,4.75-10.58,10.58s4.75,10.58,10.58,10.58,10.58-4.75,10.58-10.58-4.75-10.58-10.58-10.58Z"/>
    <path class="cls-2" d="M324.52,110.33c-7.27,0-13.18-5.91-13.18-13.18s5.91-13.18,13.18-13.18,13.18,5.91,13.18,13.18-5.91,13.18-13.18,13.18Zm0-23.76c-5.83,0-10.58,4.75-10.58,10.58s4.75,10.58,10.58,10.58,10.58-4.75,10.58-10.58-4.75-10.58-10.58-10.58Z"/>
    <path class="cls-2" d="M169.35,243.46c-7.27,0-13.18-5.91-13.18-13.18s5.91-13.18,13.18-13.18,13.18,5.91,13.18,13.18-5.91,13.18-13.18,13.18Zm0-23.76c-5.83,0-10.58,4.75-10.58,10.58s4.75,10.58,10.58,10.58,10.58-4.75,10.58-10.58-4.75-10.58-10.58-10.58Z"/>
    <path class="cls-2" d="M140.88,147.79c-7.27,0-13.18-5.91-13.18-13.18s5.91-13.18,13.18-13.18,13.18,5.91,13.18,13.18-5.91,13.18-13.18,13.18Zm0-23.76c-5.83,0-10.58,4.74-10.58,10.58s4.75,10.58,10.58,10.58,10.58-4.75,10.58-10.58-4.75-10.58-10.58-10.58Z"/>
    <path class="cls-2" d="M322.19,240.69h-17.65v-16.95h17.65v16.95Zm-15.04-2.6h12.44v-11.74h-12.44v11.74Z"/>
    <path class="cls-2" d="M350.75,16.95h-17.65V0h17.65V16.95Zm-15.05-2.6h12.44V2.6h-12.44V14.34Z"/>
  </g>
</svg>