<?xml version="1.0" encoding="UTF-8"?>
<svg id="Layer_2" data-name="Layer 2" xmlns="http://www.w3.org/2000/svg" viewBox="0 0 69.02 56.36">
  <defs>
    <style>
      .cls-1 {
        fill: #0E0E14;
      }

      .cls-2 {
        fill: none;
        stroke: #0E0E14;
        stroke-miterlimit: 10;
      }

      .line-1 , .line-2 , .line-3 , .line-4 , .line-5 , .line-6 , .line-7{
        animation: offset 2s forwards;
      }

      .line-1{
        stroke-dasharray: 39.27px;
        stroke-dashoffset: 39.27px;
      }

      .line-2{
        stroke-dasharray: 17.603px;
        stroke-dashoffset: 17.603px;
      }

      .line-3{
        stroke-dasharray: 64.72px;
        stroke-dashoffset: 64.72px;
      }

      .line-4{
        stroke-dasharray: 30.23px;
        stroke-dashoffset: 30.23px;
      }

      .line-5{
        stroke-dasharray: 54.32px;
        stroke-dashoffset: 54.32px;
      }

      .line-6{
        stroke-dasharray: 29.28px;
        stroke-dashoffset: 29.28px;
      }

      .line-7{
        stroke-dasharray: 33.77px;
        stroke-dashoffset: 33.77px;
      }

      @keyframes offset{
        to{
            stroke-dashoffset: 0px;
        }
      }
    </style>
  </defs>
  <g id="Layer_1-2" data-name="Layer 1">
    <path class="cls-1" d="M55.61,4.18c-1.15,0-2.09-.94-2.09-2.09s.94-2.09,2.09-2.09,2.09,.94,2.09,2.09-.94,2.09-2.09,2.09Zm0-3.18c-.6,0-1.09,.49-1.09,1.09s.49,1.09,1.09,1.09,1.09-.49,1.09-1.09-.49-1.09-1.09-1.09Z"/>
    <path class="cls-1" d="M21.02,51.16c-1.15,0-2.09-.94-2.09-2.09s.94-2.09,2.09-2.09,2.09,.94,2.09,2.09-.94,2.09-2.09,2.09Zm0-3.18c-.6,0-1.09,.49-1.09,1.09s.49,1.09,1.09,1.09,1.09-.49,1.09-1.09-.49-1.09-1.09-1.09Z"/>
    <path class="cls-1" d="M2.09,24.31c-1.15,0-2.09-.94-2.09-2.09s.94-2.09,2.09-2.09,2.09,.94,2.09,2.09-.94,2.09-2.09,2.09Zm0-3.18c-.6,0-1.09,.49-1.09,1.09s.49,1.09,1.09,1.09,1.09-.49,1.09-1.09-.49-1.09-1.09-1.09Z"/>
    <g>
      <circle class="cls-1" cx="49.06" cy="20.27" r="1.37"/>
      <path class="cls-1" d="M49.06,22.14c-1.03,0-1.87-.84-1.87-1.87s.84-1.87,1.87-1.87,1.87,.84,1.87,1.87-.84,1.87-1.87,1.87Zm0-2.74c-.48,0-.87,.39-.87,.87s.39,.87,.87,.87,.87-.39,.87-.87-.39-.87-.87-.87Z"/>
    </g>
    <g>
      <circle class="cls-1" cx="45.12" cy="33.98" r="1.37"/>
      <path class="cls-1" d="M45.12,35.85c-1.03,0-1.87-.84-1.87-1.87s.84-1.87,1.87-1.87,1.87,.84,1.87,1.87-.84,1.87-1.87,1.87Zm0-2.74c-.48,0-.87,.39-.87,.87s.39,.87,.87,.87,.87-.39,.87-.87-.39-.87-.87-.87Z"/>
    </g>
    <path class="cls-1" d="M42.07,4.35l-3.29-.51,.51-3.29,3.29,.51-.51,3.29Zm-2.15-1.35l1.31,.21,.2-1.31-1.31-.21-.21,1.31Z"/>
    <path class="cls-1" d="M34.23,37.12l-2.35-2.35,2.35-2.35,2.35,2.35-2.35,2.35Zm-.94-2.35l.94,.94,.94-.94-.94-.94-.94,.94Z"/>
    <g>
      <rect class="cls-1" x="7.16" y="39.39" width="2.33" height="2.33" transform="translate(32.72 7.11) rotate(47.71)"/>
      <path class="cls-1" d="M8.21,42.91l-2.24-2.46,2.46-2.24,2.24,2.46-2.46,2.24Zm-.83-2.39l.89,.98,.98-.89-.89-.98-.98,.89Z"/>
    </g>
    <g>
      <rect class="cls-1" x="12.75" y="16.18" width="2.33" height="2.33" transform="translate(1.78 -1.29) rotate(5.66)"/>
      <path class="cls-1" d="M15.41,19.16l-3.31-.33,.33-3.31,3.31,.33-.33,3.31Zm-2.22-1.22l1.32,.13,.13-1.32-1.32-.13-.13,1.32Z"/>
    </g>
    <polyline class="cls-2 line-1" points="68.56 37.15 55.62 25.39 55.62 3.6"/>
    <path class="cls-2 line-2" d="M49.03,18.6v-6.52l-7.37-8.27"/>
    <polyline class="cls-2 line-3" points="68.66 46.64 50.38 28.17 23.74 26.95 14.98 18.65"/>
    <line class="cls-2 line-4" x1="68.5" y1="54.36" x2="45.67" y2="34.53"/>
    <polyline class="cls-2 line-5" points="58.37 55.99 41.46 40.8 9.86 40.55"/>
    <polyline class="cls-2 line-6" points="49.92 55.86 41.99 48.95 23.22 49"/>
    <polyline class="cls-2 line-7" points="32.57 34.73 15.23 34.73 3.31 23.41"/>
  </g>
</svg>