<?xml version="1.0" encoding="UTF-8"?>
<svg id="Layer_2" data-name="Layer 2" xmlns="http://www.w3.org/2000/svg" xmlns:xlink="http://www.w3.org/1999/xlink" viewBox="0 0 420 778">
  <defs>
    <style>
      .cls-1 {
        fill: none;
      }

      .cls-2 {
        clip-path: url(#clippath);
      }

      .cls-3 {
        fill: #fff;
      }

      .cls-4 {
        fill: #3bbda1;
      }

      .cls-5 {
        clip-path: url(#clippath-1);
      }

      .cls-6 {
        clip-path: url(#clippath-4);
      }

      .cls-7 {
        clip-path: url(#clippath-3);
      }

      .cls-8 {
        clip-path: url(#clippath-2);
      }

      .cls-9 {
        clip-path: url(#clippath-7);
      }

      .cls-10 {
        clip-path: url(#clippath-8);
      }

      .cls-11 {
        clip-path: url(#clippath-6);
      }

      .cls-12 {
        clip-path: url(#clippath-5);
      }

      .cls-13 {
        clip-path: url(#clippath-9);
      }

      .cls-14 {
        clip-path: url(#clippath-60);
      }

      .cls-15 {
        clip-path: url(#clippath-69);
      }

      .cls-16 {
        clip-path: url(#clippath-20);
      }

      .cls-17 {
        clip-path: url(#clippath-21);
      }

      .cls-18 {
        clip-path: url(#clippath-24);
      }

      .cls-19 {
        clip-path: url(#clippath-23);
      }

      .cls-20 {
        clip-path: url(#clippath-22);
      }

      .cls-21 {
        clip-path: url(#clippath-25);
      }

      .cls-22 {
        clip-path: url(#clippath-44);
      }

      .cls-23 {
        clip-path: url(#clippath-45);
      }

      .cls-24 {
        clip-path: url(#clippath-40);
      }

      .cls-25 {
        clip-path: url(#clippath-42);
      }

      .cls-26 {
        clip-path: url(#clippath-41);
      }

      .cls-27 {
        clip-path: url(#clippath-47);
      }

      .cls-28 {
        clip-path: url(#clippath-43);
      }

      .cls-29 {
        clip-path: url(#clippath-46);
      }

      .cls-30 {
        clip-path: url(#clippath-48);
      }

      .cls-31 {
        clip-path: url(#clippath-49);
      }

      .cls-32 {
        clip-path: url(#clippath-84);
      }

      .cls-33 {
        clip-path: url(#clippath-88);
      }

      .cls-34 {
        clip-path: url(#clippath-86);
      }

      .cls-35 {
        clip-path: url(#clippath-81);
      }

      .cls-36 {
        clip-path: url(#clippath-83);
      }

      .cls-37 {
        clip-path: url(#clippath-85);
      }

      .cls-38 {
        clip-path: url(#clippath-80);
      }

      .cls-39 {
        clip-path: url(#clippath-87);
      }

      .cls-40 {
        clip-path: url(#clippath-82);
      }

      .cls-41 {
        clip-path: url(#clippath-98);
      }

      .cls-42 {
        clip-path: url(#clippath-89);
      }

      .cls-43 {
        clip-path: url(#clippath-27);
      }

      .cls-44 {
        clip-path: url(#clippath-28);
      }

      .cls-45 {
        clip-path: url(#clippath-26);
      }

      .cls-46 {
        clip-path: url(#clippath-29);
      }

      .cls-47 {
        clip-path: url(#clippath-34);
      }

      .cls-48 {
        clip-path: url(#clippath-35);
      }

      .cls-49 {
        clip-path: url(#clippath-36);
      }

      .cls-50 {
        clip-path: url(#clippath-37);
      }

      .cls-51 {
        clip-path: url(#clippath-39);
      }

      .cls-52 {
        clip-path: url(#clippath-33);
      }

      .cls-53 {
        clip-path: url(#clippath-32);
      }

      .cls-54 {
        clip-path: url(#clippath-30);
      }

      .cls-55 {
        clip-path: url(#clippath-38);
      }

      .cls-56 {
        clip-path: url(#clippath-31);
      }

      .cls-57 {
        clip-path: url(#clippath-95);
      }

      .cls-58 {
        clip-path: url(#clippath-99);
      }

      .cls-59 {
        clip-path: url(#clippath-93);
      }

      .cls-60 {
        clip-path: url(#clippath-94);
      }

      .cls-61 {
        clip-path: url(#clippath-91);
      }

      .cls-62 {
        clip-path: url(#clippath-96);
      }

      .cls-63 {
        clip-path: url(#clippath-90);
      }

      .cls-64 {
        clip-path: url(#clippath-92);
      }

      .cls-65 {
        clip-path: url(#clippath-97);
      }

      .cls-66 {
        clip-path: url(#clippath-53);
      }

      .cls-67 {
        clip-path: url(#clippath-54);
      }

      .cls-68 {
        clip-path: url(#clippath-50);
      }

      .cls-69 {
        clip-path: url(#clippath-51);
      }

      .cls-70 {
        clip-path: url(#clippath-52);
      }

      .cls-71 {
        clip-path: url(#clippath-55);
      }

      .cls-72 {
        clip-path: url(#clippath-56);
      }

      .cls-73 {
        clip-path: url(#clippath-57);
      }

      .cls-74 {
        clip-path: url(#clippath-58);
      }

      .cls-75 {
        clip-path: url(#clippath-79);
      }

      .cls-76 {
        clip-path: url(#clippath-61);
      }

      .cls-77 {
        clip-path: url(#clippath-64);
      }

      .cls-78 {
        clip-path: url(#clippath-62);
      }

      .cls-79 {
        clip-path: url(#clippath-68);
      }

      .cls-80 {
        clip-path: url(#clippath-67);
      }

      .cls-81 {
        clip-path: url(#clippath-73);
      }

      .cls-82 {
        clip-path: url(#clippath-59);
      }

      .cls-83 {
        clip-path: url(#clippath-65);
      }

      .cls-84 {
        clip-path: url(#clippath-63);
      }

      .cls-85 {
        clip-path: url(#clippath-66);
      }

      .cls-86 {
        clip-path: url(#clippath-70);
      }

      .cls-87 {
        clip-path: url(#clippath-75);
      }

      .cls-88 {
        clip-path: url(#clippath-72);
      }

      .cls-89 {
        clip-path: url(#clippath-78);
      }

      .cls-90 {
        clip-path: url(#clippath-71);
      }

      .cls-91 {
        clip-path: url(#clippath-77);
      }

      .cls-92 {
        clip-path: url(#clippath-74);
      }

      .cls-93 {
        clip-path: url(#clippath-76);
      }

      .cls-94 {
        clip-path: url(#clippath-14);
      }

      .cls-95 {
        clip-path: url(#clippath-13);
      }

      .cls-96 {
        clip-path: url(#clippath-12);
      }

      .cls-97 {
        clip-path: url(#clippath-10);
      }

      .cls-98 {
        clip-path: url(#clippath-15);
      }

      .cls-99 {
        clip-path: url(#clippath-17);
      }

      .cls-100 {
        clip-path: url(#clippath-16);
      }

      .cls-101 {
        clip-path: url(#clippath-19);
      }

      .cls-102 {
        clip-path: url(#clippath-11);
      }

      .cls-103 {
        clip-path: url(#clippath-18);
      }

      .cls-104 {
        isolation: isolate;
        opacity: .05;
      }

      .cls-105 {
        clip-path: url(#clippath-144);
      }

      .cls-106 {
        clip-path: url(#clippath-153);
      }

      .cls-107 {
        clip-path: url(#clippath-157);
      }

      .cls-108 {
        clip-path: url(#clippath-154);
      }

      .cls-109 {
        clip-path: url(#clippath-158);
      }

      .cls-110 {
        clip-path: url(#clippath-146);
      }

      .cls-111 {
        clip-path: url(#clippath-142);
      }

      .cls-112 {
        clip-path: url(#clippath-148);
      }

      .cls-113 {
        clip-path: url(#clippath-141);
      }

      .cls-114 {
        clip-path: url(#clippath-145);
      }

      .cls-115 {
        clip-path: url(#clippath-143);
      }

      .cls-116 {
        clip-path: url(#clippath-147);
      }

      .cls-117 {
        clip-path: url(#clippath-149);
      }

      .cls-118 {
        clip-path: url(#clippath-140);
      }

      .cls-119 {
        clip-path: url(#clippath-151);
      }

      .cls-120 {
        clip-path: url(#clippath-152);
      }

      .cls-121 {
        clip-path: url(#clippath-156);
      }

      .cls-122 {
        clip-path: url(#clippath-155);
      }

      .cls-123 {
        clip-path: url(#clippath-159);
      }

      .cls-124 {
        clip-path: url(#clippath-150);
      }

      .cls-125 {
        clip-path: url(#clippath-113);
      }

      .cls-126 {
        clip-path: url(#clippath-112);
      }

      .cls-127 {
        clip-path: url(#clippath-111);
      }

      .cls-128 {
        clip-path: url(#clippath-110);
      }

      .cls-129 {
        clip-path: url(#clippath-115);
      }

      .cls-130 {
        clip-path: url(#clippath-114);
      }

      .cls-131 {
        clip-path: url(#clippath-116);
      }

      .cls-132 {
        clip-path: url(#clippath-117);
      }

      .cls-133 {
        clip-path: url(#clippath-118);
      }

      .cls-134 {
        clip-path: url(#clippath-119);
      }

      .cls-135 {
        clip-path: url(#clippath-105);
      }

      .cls-136 {
        clip-path: url(#clippath-100);
      }

      .cls-137 {
        clip-path: url(#clippath-102);
      }

      .cls-138 {
        clip-path: url(#clippath-103);
      }

      .cls-139 {
        clip-path: url(#clippath-107);
      }

      .cls-140 {
        clip-path: url(#clippath-109);
      }

      .cls-141 {
        clip-path: url(#clippath-104);
      }

      .cls-142 {
        clip-path: url(#clippath-101);
      }

      .cls-143 {
        clip-path: url(#clippath-108);
      }

      .cls-144 {
        clip-path: url(#clippath-106);
      }

      .cls-145 {
        clip-path: url(#clippath-161);
      }

      .cls-146 {
        clip-path: url(#clippath-160);
      }

      .cls-147 {
        clip-path: url(#clippath-166);
      }

      .cls-148 {
        clip-path: url(#clippath-171);
      }

      .cls-149 {
        clip-path: url(#clippath-172);
      }

      .cls-150 {
        clip-path: url(#clippath-178);
      }

      .cls-151 {
        clip-path: url(#clippath-174);
      }

      .cls-152 {
        clip-path: url(#clippath-179);
      }

      .cls-153 {
        clip-path: url(#clippath-170);
      }

      .cls-154 {
        clip-path: url(#clippath-177);
      }

      .cls-155 {
        clip-path: url(#clippath-176);
      }

      .cls-156 {
        clip-path: url(#clippath-175);
      }

      .cls-157 {
        clip-path: url(#clippath-173);
      }

      .cls-158 {
        clip-path: url(#clippath-136);
      }

      .cls-159 {
        clip-path: url(#clippath-138);
      }

      .cls-160 {
        clip-path: url(#clippath-135);
      }

      .cls-161 {
        clip-path: url(#clippath-132);
      }

      .cls-162 {
        clip-path: url(#clippath-137);
      }

      .cls-163 {
        clip-path: url(#clippath-130);
      }

      .cls-164 {
        clip-path: url(#clippath-133);
      }

      .cls-165 {
        clip-path: url(#clippath-134);
      }

      .cls-166 {
        clip-path: url(#clippath-139);
      }

      .cls-167 {
        clip-path: url(#clippath-131);
      }

      .cls-168 {
        clip-path: url(#clippath-129);
      }

      .cls-169 {
        clip-path: url(#clippath-122);
      }

      .cls-170 {
        clip-path: url(#clippath-126);
      }

      .cls-171 {
        clip-path: url(#clippath-125);
      }

      .cls-172 {
        clip-path: url(#clippath-120);
      }

      .cls-173 {
        clip-path: url(#clippath-121);
      }

      .cls-174 {
        clip-path: url(#clippath-123);
      }

      .cls-175 {
        clip-path: url(#clippath-124);
      }

      .cls-176 {
        clip-path: url(#clippath-127);
      }

      .cls-177 {
        clip-path: url(#clippath-128);
      }

      .cls-178 {
        clip-path: url(#clippath-164);
      }

      .cls-179 {
        clip-path: url(#clippath-165);
      }

      .cls-180 {
        clip-path: url(#clippath-167);
      }

      .cls-181 {
        clip-path: url(#clippath-162);
      }

      .cls-182 {
        clip-path: url(#clippath-163);
      }

      .cls-183 {
        clip-path: url(#clippath-168);
      }

      .cls-184 {
        clip-path: url(#clippath-169);
      }
    </style>
    <clipPath id="clippath">
      <rect class="cls-1" y="80" width="420" height="51"/>
    </clipPath>
    <clipPath id="clippath-1">
      <path class="cls-1" d="M0,81.16v48.68H21.43c3.8,0,7.11-.62,9.91-1.88s5.15-2.97,7.03-5.15c1.88-2.18,3.28-4.77,4.21-7.77,.93-3,1.39-6.27,1.39-9.82,0-4.05-.57-7.57-1.7-10.57-1.14-3-2.71-5.5-4.73-7.5-2.02-2-4.41-3.5-7.17-4.5s-5.74-1.5-8.94-1.5H0Zm10.92,39.68v-30.68h7.79c2.69,0,4.95,.38,6.78,1.12,1.83,.75,3.3,1.83,4.42,3.24s1.91,3.1,2.4,5.08c.49,1.98,.73,4.19,.73,6.65,0,2.68-.35,4.95-1.04,6.82-.7,1.86-1.62,3.38-2.78,4.53-1.16,1.16-2.48,1.99-3.97,2.49-1.48,.5-3.01,.75-4.59,.75H10.92Z"/>
    </clipPath>
    <clipPath id="clippath-2">
      <rect class="cls-1" y="80" width="420" height="51"/>
    </clipPath>
    <clipPath id="clippath-3">
      <polygon class="cls-1" points="52.07 81.16 52.07 129.84 90.25 129.84 90.25 120.84 63.13 120.84 63.13 108.91 87.5 108.91 87.5 100.59 63.13 100.59 63.13 90.16 89.68 90.16 89.68 81.16 52.07 81.16"/>
    </clipPath>
    <clipPath id="clippath-4">
      <rect class="cls-1" y="80" width="420" height="51"/>
    </clipPath>
    <clipPath id="clippath-5">
      <polygon class="cls-1" points="122.69 129.84 138.84 81.16 127.8 81.16 116.83 115.39 116.69 115.39 105.85 81.16 94.88 81.16 110.62 129.84 122.69 129.84"/>
    </clipPath>
    <clipPath id="clippath-6">
      <rect class="cls-1" y="80" width="420" height="51"/>
    </clipPath>
    <clipPath id="clippath-7">
      <polygon class="cls-1" points="143.47 81.16 143.47 129.84 181.65 129.84 181.65 120.84 154.53 120.84 154.53 108.91 178.91 108.91 178.91 100.59 154.53 100.59 154.53 90.16 181.09 90.16 181.09 81.16 143.47 81.16"/>
    </clipPath>
    <clipPath id="clippath-8">
      <rect class="cls-1" y="80" width="420" height="51"/>
    </clipPath>
    <clipPath id="clippath-9">
      <polygon class="cls-1" points="188.59 81.16 188.59 129.84 223.31 129.84 223.31 120.84 199.39 120.84 199.39 81.16 188.59 81.16"/>
    </clipPath>
    <clipPath id="clippath-10">
      <rect class="cls-1" y="80" width="420" height="51"/>
    </clipPath>
    <clipPath id="clippath-11">
      <path class="cls-1" d="M230.25,105.74c0,3.55,.51,6.86,1.54,9.93,1.03,3.07,2.51,5.75,4.44,8.02,1.93,2.28,4.3,4.06,7.1,5.36,2.81,1.3,5.97,1.95,9.48,1.95s6.73-.65,9.51-1.95c2.79-1.3,5.14-3.08,7.07-5.36,1.93-2.28,3.41-4.95,4.44-8.02,1.03-3.07,1.54-6.38,1.54-9.93s-.51-7.02-1.54-10.14-2.51-5.84-4.44-8.16c-1.93-2.32-4.29-4.14-7.07-5.46-2.79-1.32-5.96-1.98-9.51-1.98s-6.67,.66-9.48,1.98c-2.81,1.32-5.17,3.14-7.1,5.46-1.93,2.32-3.41,5.04-4.44,8.16-1.03,3.12-1.54,6.5-1.54,10.14Zm10.09,0c0-2.14,.22-4.21,.67-6.21,.45-2,1.17-3.79,2.15-5.36,.99-1.57,2.27-2.82,3.86-3.76,1.59-.93,3.51-1.4,5.79-1.4s4.2,.47,5.79,1.4c1.59,.93,2.87,2.18,3.86,3.76,.99,1.57,1.7,3.36,2.15,5.36,.45,2,.67,4.07,.67,6.21s-.22,4.04-.67,5.97c-.45,1.93-1.17,3.68-2.15,5.22s-2.27,2.79-3.86,3.72c-1.59,.93-3.51,1.4-5.79,1.4s-4.2-.47-5.79-1.4c-1.59-.93-2.87-2.17-3.86-3.72s-1.7-3.29-2.15-5.22c-.45-1.93-.67-3.93-.67-5.97Z"/>
    </clipPath>
    <clipPath id="clippath-12">
      <rect class="cls-1" y="80" width="420" height="51"/>
    </clipPath>
    <clipPath id="clippath-13">
      <path class="cls-1" d="M285.79,81.16v48.68h10.85v-17.45h11.41c3.09,0,5.72-.44,7.88-1.33,2.17-.89,3.93-2.06,5.29-3.51,1.36-1.45,2.35-3.12,2.97-5.01,.62-1.89,.93-3.81,.93-5.76s-.31-3.93-.93-5.8c-.62-1.86-1.61-3.52-2.97-4.98-1.36-1.45-3.12-2.62-5.29-3.51-2.17-.89-4.79-1.33-7.88-1.33h-22.26Zm10.85,22.91v-14.59h8.43c1.24,0,2.44,.09,3.6,.27,1.15,.18,2.17,.53,3.04,1.06,.88,.52,1.58,1.26,2.11,2.22,.53,.95,.8,2.2,.8,3.75s-.27,2.8-.8,3.75c-.53,.95-1.23,1.69-2.11,2.22-.88,.52-1.89,.88-3.04,1.06-1.15,.18-2.35,.27-3.6,.27h-8.43Z"/>
    </clipPath>
    <clipPath id="clippath-14">
      <rect class="cls-1" y="80" width="420" height="51"/>
    </clipPath>
    <clipPath id="clippath-15">
      <polygon class="cls-1" points="332.07 81.16 332.07 129.84 370.25 129.84 370.25 120.84 343.13 120.84 343.13 108.91 367.5 108.91 367.5 100.59 343.13 100.59 343.13 90.16 369.68 90.16 369.68 81.16 332.07 81.16"/>
    </clipPath>
    <clipPath id="clippath-16">
      <rect class="cls-1" y="80" width="420" height="51"/>
    </clipPath>
    <clipPath id="clippath-17">
      <path class="cls-1" d="M378.35,81.16v48.68h10.63v-19.02h10.63c2.66,0,4.58,.59,5.76,1.77,1.17,1.18,1.94,3.05,2.3,5.59,.27,1.95,.47,4,.61,6.14,.14,2.14,.5,3.98,1.08,5.52h10.63c-.5-.68-.87-1.51-1.12-2.49-.25-.98-.43-2.01-.54-3.1-.11-1.09-.19-2.16-.24-3.2-.05-1.05-.09-1.95-.14-2.73-.09-1.23-.26-2.45-.51-3.68-.25-1.23-.64-2.35-1.19-3.38-.54-1.02-1.24-1.91-2.1-2.66s-1.94-1.31-3.25-1.67v-.14c2.71-1.09,4.66-2.68,5.86-4.77s1.79-4.57,1.79-7.43c0-1.86-.33-3.6-.98-5.22-.65-1.61-1.6-3.03-2.84-4.26-1.24-1.23-2.73-2.19-4.47-2.9-1.74-.7-3.69-1.06-5.86-1.06h-26.08Zm10.63,22.02v-13.7h11.65c2.44,0,4.27,.53,5.49,1.6,1.22,1.07,1.83,2.78,1.83,5.15s-.61,4.23-1.83,5.32c-1.22,1.09-3.05,1.64-5.49,1.64h-11.65Z"/>
    </clipPath>
    <clipPath id="clippath-18">
      <rect class="cls-1" y="80" width="420" height="51"/>
    </clipPath>
    <clipPath id="clippath-19">
      <rect class="cls-1" y="247" width="420" height="51"/>
    </clipPath>
    <clipPath id="clippath-20">
      <path class="cls-1" d="M0,248.16v48.68H21.43c3.8,0,7.11-.62,9.91-1.88s5.15-2.97,7.03-5.15c1.88-2.18,3.28-4.77,4.21-7.77,.93-3,1.39-6.27,1.39-9.82,0-4.05-.57-7.57-1.7-10.57-1.14-3-2.71-5.5-4.73-7.5-2.02-2-4.41-3.5-7.17-4.5s-5.74-1.5-8.94-1.5H0Zm10.92,39.68v-30.68h7.79c2.69,0,4.95,.38,6.78,1.12,1.83,.75,3.3,1.83,4.42,3.24s1.91,3.1,2.4,5.08c.49,1.98,.73,4.19,.73,6.65,0,2.68-.35,4.95-1.04,6.82-.7,1.86-1.62,3.38-2.78,4.53-1.16,1.16-2.48,1.99-3.97,2.49-1.48,.5-3.01,.75-4.59,.75H10.92Z"/>
    </clipPath>
    <clipPath id="clippath-21">
      <rect class="cls-1" y="247" width="420" height="51"/>
    </clipPath>
    <clipPath id="clippath-22">
      <polygon class="cls-1" points="52.07 248.16 52.07 296.84 90.25 296.84 90.25 287.84 63.13 287.84 63.13 275.91 87.5 275.91 87.5 267.59 63.13 267.59 63.13 257.16 89.68 257.16 89.68 248.16 52.07 248.16"/>
    </clipPath>
    <clipPath id="clippath-23">
      <rect class="cls-1" y="247" width="420" height="51"/>
    </clipPath>
    <clipPath id="clippath-24">
      <polygon class="cls-1" points="122.69 296.84 138.84 248.16 127.8 248.16 116.83 282.39 116.69 282.39 105.85 248.16 94.88 248.16 110.62 296.84 122.69 296.84"/>
    </clipPath>
    <clipPath id="clippath-25">
      <rect class="cls-1" y="247" width="420" height="51"/>
    </clipPath>
    <clipPath id="clippath-26">
      <polygon class="cls-1" points="143.47 248.16 143.47 296.84 181.65 296.84 181.65 287.84 154.53 287.84 154.53 275.91 178.91 275.91 178.91 267.59 154.53 267.59 154.53 257.16 181.09 257.16 181.09 248.16 143.47 248.16"/>
    </clipPath>
    <clipPath id="clippath-27">
      <rect class="cls-1" y="247" width="420" height="51"/>
    </clipPath>
    <clipPath id="clippath-28">
      <polygon class="cls-1" points="188.59 248.16 188.59 296.84 223.31 296.84 223.31 287.84 199.39 287.84 199.39 248.16 188.59 248.16"/>
    </clipPath>
    <clipPath id="clippath-29">
      <rect class="cls-1" y="247" width="420" height="51"/>
    </clipPath>
    <clipPath id="clippath-30">
      <path class="cls-1" d="M230.25,272.74c0,3.55,.51,6.86,1.54,9.93,1.03,3.07,2.51,5.75,4.44,8.02,1.93,2.28,4.3,4.06,7.1,5.36,2.81,1.3,5.97,1.95,9.48,1.95s6.73-.65,9.51-1.95c2.79-1.3,5.14-3.08,7.07-5.36,1.93-2.28,3.41-4.95,4.44-8.02s1.54-6.38,1.54-9.93-.51-7.02-1.54-10.14-2.51-5.84-4.44-8.16c-1.93-2.32-4.29-4.14-7.07-5.46-2.79-1.32-5.96-1.98-9.51-1.98s-6.67,.66-9.48,1.98c-2.81,1.32-5.17,3.14-7.1,5.46-1.93,2.32-3.41,5.04-4.44,8.16-1.03,3.12-1.54,6.5-1.54,10.14Zm10.09,0c0-2.14,.22-4.21,.67-6.21,.45-2,1.17-3.79,2.15-5.36,.99-1.57,2.27-2.82,3.86-3.76,1.59-.93,3.51-1.4,5.79-1.4s4.2,.47,5.79,1.4c1.59,.93,2.87,2.18,3.86,3.76,.99,1.57,1.7,3.36,2.15,5.36,.45,2,.67,4.07,.67,6.21s-.22,4.04-.67,5.97c-.45,1.93-1.17,3.68-2.15,5.22-.99,1.55-2.27,2.79-3.86,3.72-1.59,.93-3.51,1.4-5.79,1.4s-4.2-.47-5.79-1.4c-1.59-.93-2.87-2.17-3.86-3.72-.99-1.55-1.7-3.29-2.15-5.22-.45-1.93-.67-3.93-.67-5.97Z"/>
    </clipPath>
    <clipPath id="clippath-31">
      <rect class="cls-1" y="247" width="420" height="51"/>
    </clipPath>
    <clipPath id="clippath-32">
      <path class="cls-1" d="M285.79,248.16v48.68h10.85v-17.45h11.41c3.09,0,5.72-.44,7.88-1.33,2.17-.89,3.93-2.06,5.29-3.51,1.36-1.45,2.35-3.12,2.97-5.01,.62-1.89,.93-3.81,.93-5.76s-.31-3.93-.93-5.8c-.62-1.86-1.61-3.52-2.97-4.98-1.36-1.45-3.12-2.62-5.29-3.51-2.17-.89-4.79-1.33-7.88-1.33h-22.26Zm10.85,22.91v-14.59h8.43c1.24,0,2.44,.09,3.6,.27,1.15,.18,2.17,.53,3.04,1.06,.88,.52,1.58,1.26,2.11,2.22,.53,.95,.8,2.2,.8,3.75s-.27,2.8-.8,3.75c-.53,.95-1.23,1.69-2.11,2.22-.88,.52-1.89,.88-3.04,1.06-1.15,.18-2.35,.27-3.6,.27h-8.43Z"/>
    </clipPath>
    <clipPath id="clippath-33">
      <rect class="cls-1" y="247" width="420" height="51"/>
    </clipPath>
    <clipPath id="clippath-34">
      <polygon class="cls-1" points="332.07 248.16 332.07 296.84 370.25 296.84 370.25 287.84 343.13 287.84 343.13 275.91 367.5 275.91 367.5 267.59 343.13 267.59 343.13 257.16 369.68 257.16 369.68 248.16 332.07 248.16"/>
    </clipPath>
    <clipPath id="clippath-35">
      <rect class="cls-1" y="247" width="420" height="51"/>
    </clipPath>
    <clipPath id="clippath-36">
      <path class="cls-1" d="M378.35,248.16v48.68h10.63v-19.02h10.63c2.66,0,4.58,.59,5.76,1.77,1.17,1.18,1.94,3.05,2.3,5.59,.27,1.95,.47,4,.61,6.14,.14,2.14,.5,3.98,1.08,5.52h10.63c-.5-.68-.87-1.51-1.12-2.49-.25-.98-.43-2.01-.54-3.1-.11-1.09-.19-2.16-.24-3.2-.05-1.05-.09-1.95-.14-2.73-.09-1.23-.26-2.45-.51-3.68-.25-1.23-.64-2.35-1.19-3.38-.54-1.02-1.24-1.91-2.1-2.66s-1.94-1.31-3.25-1.67v-.14c2.71-1.09,4.66-2.68,5.86-4.77,1.2-2.09,1.79-4.57,1.79-7.43,0-1.86-.33-3.6-.98-5.22-.65-1.61-1.6-3.03-2.84-4.26-1.24-1.23-2.73-2.19-4.47-2.9-1.74-.7-3.69-1.06-5.86-1.06h-26.08Zm10.63,22.02v-13.7h11.65c2.44,0,4.27,.53,5.49,1.6,1.22,1.07,1.83,2.78,1.83,5.15s-.61,4.23-1.83,5.32c-1.22,1.09-3.05,1.64-5.49,1.64h-11.65Z"/>
    </clipPath>
    <clipPath id="clippath-37">
      <rect class="cls-1" y="247" width="420" height="51"/>
    </clipPath>
    <clipPath id="clippath-38">
      <rect class="cls-1" y="412" width="420" height="51"/>
    </clipPath>
    <clipPath id="clippath-39">
      <path class="cls-1" d="M0,414.32v48.68H21.43c3.8,0,7.11-.62,9.91-1.88s5.15-2.97,7.03-5.15c1.88-2.18,3.28-4.77,4.21-7.77,.93-3,1.39-6.27,1.39-9.82,0-4.05-.57-7.57-1.7-10.57-1.14-3-2.71-5.5-4.73-7.5-2.02-2-4.41-3.5-7.17-4.5s-5.74-1.5-8.94-1.5H0Zm10.92,39.68v-30.68h7.79c2.69,0,4.95,.38,6.78,1.12,1.83,.75,3.3,1.83,4.42,3.24,1.11,1.41,1.91,3.1,2.4,5.08,.49,1.98,.73,4.19,.73,6.65,0,2.68-.35,4.95-1.04,6.82-.7,1.86-1.62,3.38-2.78,4.53-1.16,1.16-2.48,1.99-3.97,2.49-1.48,.5-3.01,.75-4.59,.75H10.92Z"/>
    </clipPath>
    <clipPath id="clippath-40">
      <rect class="cls-1" y="412" width="420" height="51"/>
    </clipPath>
    <clipPath id="clippath-41">
      <polygon class="cls-1" points="52.07 414.32 52.07 463 90.25 463 90.25 454 63.13 454 63.13 442.07 87.5 442.07 87.5 433.75 63.13 433.75 63.13 423.32 89.68 423.32 89.68 414.32 52.07 414.32"/>
    </clipPath>
    <clipPath id="clippath-42">
      <rect class="cls-1" y="412" width="420" height="51"/>
    </clipPath>
    <clipPath id="clippath-43">
      <polygon class="cls-1" points="122.69 463 138.84 414.32 127.8 414.32 116.83 448.55 116.69 448.55 105.85 414.32 94.88 414.32 110.62 463 122.69 463"/>
    </clipPath>
    <clipPath id="clippath-44">
      <rect class="cls-1" y="412" width="420" height="51"/>
    </clipPath>
    <clipPath id="clippath-45">
      <polygon class="cls-1" points="143.47 414.32 143.47 463 181.65 463 181.65 454 154.53 454 154.53 442.07 178.91 442.07 178.91 433.75 154.53 433.75 154.53 423.32 181.09 423.32 181.09 414.32 143.47 414.32"/>
    </clipPath>
    <clipPath id="clippath-46">
      <rect class="cls-1" y="412" width="420" height="51"/>
    </clipPath>
    <clipPath id="clippath-47">
      <polygon class="cls-1" points="188.59 414.32 188.59 463 223.31 463 223.31 454 199.39 454 199.39 414.32 188.59 414.32"/>
    </clipPath>
    <clipPath id="clippath-48">
      <rect class="cls-1" y="412" width="420" height="51"/>
    </clipPath>
    <clipPath id="clippath-49">
      <path class="cls-1" d="M230.25,437.74c0,3.55,.51,6.86,1.54,9.93,1.03,3.07,2.51,5.75,4.44,8.02,1.93,2.28,4.3,4.06,7.1,5.36,2.81,1.3,5.97,1.95,9.48,1.95s6.73-.65,9.51-1.95c2.79-1.3,5.14-3.08,7.07-5.36,1.93-2.28,3.41-4.95,4.44-8.02s1.54-6.38,1.54-9.93-.51-7.02-1.54-10.14-2.51-5.84-4.44-8.16c-1.93-2.32-4.29-4.14-7.07-5.46-2.79-1.32-5.96-1.98-9.51-1.98s-6.67,.66-9.48,1.98c-2.81,1.32-5.17,3.14-7.1,5.46s-3.41,5.04-4.44,8.16c-1.03,3.12-1.54,6.5-1.54,10.14Zm10.09,0c0-2.14,.22-4.21,.67-6.21,.45-2,1.17-3.79,2.15-5.36,.99-1.57,2.27-2.82,3.86-3.76,1.59-.93,3.51-1.4,5.79-1.4s4.2,.47,5.79,1.4c1.59,.93,2.87,2.18,3.86,3.76,.99,1.57,1.7,3.36,2.15,5.36,.45,2,.67,4.07,.67,6.21s-.22,4.04-.67,5.97c-.45,1.93-1.17,3.68-2.15,5.22-.99,1.55-2.27,2.79-3.86,3.72-1.59,.93-3.51,1.4-5.79,1.4s-4.2-.47-5.79-1.4c-1.59-.93-2.87-2.17-3.86-3.72-.99-1.55-1.7-3.29-2.15-5.22-.45-1.93-.67-3.93-.67-5.97Z"/>
    </clipPath>
    <clipPath id="clippath-50">
      <rect class="cls-1" y="412" width="420" height="51"/>
    </clipPath>
    <clipPath id="clippath-51">
      <path class="cls-1" d="M285.79,414.32v48.68h10.85v-17.45h11.41c3.09,0,5.72-.44,7.88-1.33,2.17-.89,3.93-2.06,5.29-3.51,1.36-1.45,2.35-3.12,2.97-5.01,.62-1.89,.93-3.81,.93-5.76s-.31-3.93-.93-5.8c-.62-1.86-1.61-3.52-2.97-4.98-1.36-1.45-3.12-2.62-5.29-3.51-2.17-.89-4.79-1.33-7.88-1.33h-22.26Zm10.85,22.91v-14.59h8.43c1.24,0,2.44,.09,3.6,.27,1.15,.18,2.17,.53,3.04,1.06,.88,.52,1.58,1.26,2.11,2.22,.53,.95,.8,2.2,.8,3.75s-.27,2.8-.8,3.75c-.53,.95-1.23,1.69-2.11,2.22-.88,.52-1.89,.88-3.04,1.06-1.15,.18-2.35,.27-3.6,.27h-8.43Z"/>
    </clipPath>
    <clipPath id="clippath-52">
      <rect class="cls-1" y="412" width="420" height="51"/>
    </clipPath>
    <clipPath id="clippath-53">
      <polygon class="cls-1" points="332.07 414.32 332.07 463 370.25 463 370.25 454 343.13 454 343.13 442.07 367.5 442.07 367.5 433.75 343.13 433.75 343.13 423.32 369.68 423.32 369.68 414.32 332.07 414.32"/>
    </clipPath>
    <clipPath id="clippath-54">
      <rect class="cls-1" y="412" width="420" height="51"/>
    </clipPath>
    <clipPath id="clippath-55">
      <path class="cls-1" d="M378.35,414.32v48.68h10.63v-19.02h10.63c2.66,0,4.58,.59,5.76,1.77,1.17,1.18,1.94,3.05,2.3,5.59,.27,1.95,.47,4,.61,6.14,.14,2.14,.5,3.98,1.08,5.52h10.63c-.5-.68-.87-1.51-1.12-2.49-.25-.98-.43-2.01-.54-3.1-.11-1.09-.19-2.16-.24-3.2-.05-1.05-.09-1.95-.14-2.73-.09-1.23-.26-2.45-.51-3.68-.25-1.23-.64-2.35-1.19-3.38-.54-1.02-1.24-1.91-2.1-2.66s-1.94-1.31-3.25-1.67v-.14c2.71-1.09,4.66-2.68,5.86-4.77,1.2-2.09,1.79-4.57,1.79-7.43,0-1.86-.33-3.6-.98-5.22-.65-1.61-1.6-3.03-2.84-4.26-1.24-1.23-2.73-2.19-4.47-2.9s-3.69-1.06-5.86-1.06h-26.08Zm10.63,22.02v-13.7h11.65c2.44,0,4.27,.53,5.49,1.6,1.22,1.07,1.83,2.78,1.83,5.15s-.61,4.23-1.83,5.32c-1.22,1.09-3.05,1.64-5.49,1.64h-11.65Z"/>
    </clipPath>
    <clipPath id="clippath-56">
      <rect class="cls-1" y="412" width="420" height="51"/>
    </clipPath>
    <clipPath id="clippath-57">
      <rect class="cls-1" y="570" width="420" height="52"/>
    </clipPath>
    <clipPath id="clippath-58">
      <path class="cls-1" d="M0,572.32v48.68H21.43c3.8,0,7.11-.62,9.91-1.88s5.15-2.97,7.03-5.15c1.88-2.18,3.28-4.77,4.21-7.77,.93-3,1.39-6.27,1.39-9.82,0-4.05-.57-7.57-1.7-10.57-1.14-3-2.71-5.5-4.73-7.5-2.02-2-4.41-3.5-7.17-4.5s-5.74-1.5-8.94-1.5H0Zm10.92,39.68v-30.68h7.79c2.69,0,4.95,.38,6.78,1.12,1.83,.75,3.3,1.83,4.42,3.24,1.11,1.41,1.91,3.1,2.4,5.08,.49,1.98,.73,4.19,.73,6.65,0,2.68-.35,4.95-1.04,6.82-.7,1.86-1.62,3.38-2.78,4.53-1.16,1.16-2.48,1.99-3.97,2.49-1.48,.5-3.01,.75-4.59,.75H10.92Z"/>
    </clipPath>
    <clipPath id="clippath-59">
      <rect class="cls-1" y="570" width="420" height="52"/>
    </clipPath>
    <clipPath id="clippath-60">
      <polygon class="cls-1" points="52.07 572.32 52.07 621 90.25 621 90.25 612 63.13 612 63.13 600.07 87.5 600.07 87.5 591.75 63.13 591.75 63.13 581.32 89.68 581.32 89.68 572.32 52.07 572.32"/>
    </clipPath>
    <clipPath id="clippath-61">
      <rect class="cls-1" y="570" width="420" height="52"/>
    </clipPath>
    <clipPath id="clippath-62">
      <polygon class="cls-1" points="122.69 621 138.84 572.32 127.8 572.32 116.83 606.55 116.69 606.55 105.85 572.32 94.88 572.32 110.62 621 122.69 621"/>
    </clipPath>
    <clipPath id="clippath-63">
      <rect class="cls-1" y="570" width="420" height="52"/>
    </clipPath>
    <clipPath id="clippath-64">
      <polygon class="cls-1" points="143.47 572.32 143.47 621 181.65 621 181.65 612 154.53 612 154.53 600.07 178.91 600.07 178.91 591.75 154.53 591.75 154.53 581.32 181.09 581.32 181.09 572.32 143.47 572.32"/>
    </clipPath>
    <clipPath id="clippath-65">
      <rect class="cls-1" y="570" width="420" height="52"/>
    </clipPath>
    <clipPath id="clippath-66">
      <polygon class="cls-1" points="188.59 572.32 188.59 621 223.31 621 223.31 612 199.39 612 199.39 572.32 188.59 572.32"/>
    </clipPath>
    <clipPath id="clippath-67">
      <rect class="cls-1" y="570" width="420" height="52"/>
    </clipPath>
    <clipPath id="clippath-68">
      <path class="cls-1" d="M230.25,595.74c0,3.55,.51,6.86,1.54,9.93,1.03,3.07,2.51,5.75,4.44,8.02,1.93,2.28,4.3,4.06,7.1,5.36,2.81,1.3,5.97,1.95,9.48,1.95s6.73-.65,9.51-1.95c2.79-1.3,5.14-3.08,7.07-5.36,1.93-2.28,3.41-4.95,4.44-8.02s1.54-6.38,1.54-9.93-.51-7.02-1.54-10.14-2.51-5.84-4.44-8.16c-1.93-2.32-4.29-4.14-7.07-5.46-2.79-1.32-5.96-1.98-9.51-1.98s-6.67,.66-9.48,1.98c-2.81,1.32-5.17,3.14-7.1,5.46s-3.41,5.04-4.44,8.16c-1.03,3.12-1.54,6.5-1.54,10.14Zm10.09,0c0-2.14,.22-4.21,.67-6.21,.45-2,1.17-3.79,2.15-5.36,.99-1.57,2.27-2.82,3.86-3.76,1.59-.93,3.51-1.4,5.79-1.4s4.2,.47,5.79,1.4c1.59,.93,2.87,2.18,3.86,3.76,.99,1.57,1.7,3.36,2.15,5.36,.45,2,.67,4.07,.67,6.21s-.22,4.04-.67,5.97c-.45,1.93-1.17,3.68-2.15,5.22-.99,1.55-2.27,2.79-3.86,3.72-1.59,.93-3.51,1.4-5.79,1.4s-4.2-.47-5.79-1.4c-1.59-.93-2.87-2.17-3.86-3.72-.99-1.55-1.7-3.29-2.15-5.22-.45-1.93-.67-3.93-.67-5.97Z"/>
    </clipPath>
    <clipPath id="clippath-69">
      <rect class="cls-1" y="570" width="420" height="52"/>
    </clipPath>
    <clipPath id="clippath-70">
      <path class="cls-1" d="M285.79,572.32v48.68h10.85v-17.45h11.41c3.09,0,5.72-.44,7.88-1.33,2.17-.89,3.93-2.06,5.29-3.51,1.36-1.45,2.35-3.12,2.97-5.01,.62-1.89,.93-3.81,.93-5.76s-.31-3.93-.93-5.8c-.62-1.86-1.61-3.52-2.97-4.98-1.36-1.45-3.12-2.62-5.29-3.51-2.17-.89-4.79-1.33-7.88-1.33h-22.26Zm10.85,22.91v-14.59h8.43c1.24,0,2.44,.09,3.6,.27,1.15,.18,2.17,.53,3.04,1.06,.88,.52,1.58,1.26,2.11,2.22,.53,.95,.8,2.2,.8,3.75s-.27,2.8-.8,3.75c-.53,.95-1.23,1.69-2.11,2.22-.88,.52-1.89,.88-3.04,1.06-1.15,.18-2.35,.27-3.6,.27h-8.43Z"/>
    </clipPath>
    <clipPath id="clippath-71">
      <rect class="cls-1" y="570" width="420" height="52"/>
    </clipPath>
    <clipPath id="clippath-72">
      <polygon class="cls-1" points="332.07 572.32 332.07 621 370.25 621 370.25 612 343.13 612 343.13 600.07 367.5 600.07 367.5 591.75 343.13 591.75 343.13 581.32 369.68 581.32 369.68 572.32 332.07 572.32"/>
    </clipPath>
    <clipPath id="clippath-73">
      <rect class="cls-1" y="570" width="420" height="52"/>
    </clipPath>
    <clipPath id="clippath-74">
      <path class="cls-1" d="M378.35,572.32v48.68h10.63v-19.02h10.63c2.66,0,4.58,.59,5.76,1.77,1.17,1.18,1.94,3.05,2.3,5.59,.27,1.95,.47,4,.61,6.14,.14,2.14,.5,3.98,1.08,5.52h10.63c-.5-.68-.87-1.51-1.12-2.49-.25-.98-.43-2.01-.54-3.1-.11-1.09-.19-2.16-.24-3.2-.05-1.05-.09-1.95-.14-2.73-.09-1.23-.26-2.45-.51-3.68-.25-1.23-.64-2.35-1.19-3.38-.54-1.02-1.24-1.91-2.1-2.66s-1.94-1.31-3.25-1.67v-.14c2.71-1.09,4.66-2.68,5.86-4.77,1.2-2.09,1.79-4.57,1.79-7.43,0-1.86-.33-3.6-.98-5.22-.65-1.61-1.6-3.03-2.84-4.26-1.24-1.23-2.73-2.19-4.47-2.9s-3.69-1.06-5.86-1.06h-26.08Zm10.63,22.02v-13.7h11.65c2.44,0,4.27,.53,5.49,1.6,1.22,1.07,1.83,2.78,1.83,5.15s-.61,4.23-1.83,5.32c-1.22,1.09-3.05,1.64-5.49,1.64h-11.65Z"/>
    </clipPath>
    <clipPath id="clippath-75">
      <rect class="cls-1" y="570" width="420" height="52"/>
    </clipPath>
    <clipPath id="clippath-76">
      <rect class="cls-1" y="727" width="420" height="51"/>
    </clipPath>
    <clipPath id="clippath-77">
      <path class="cls-1" d="M0,729.32v48.68H21.43c3.8,0,7.11-.62,9.91-1.88s5.15-2.97,7.03-5.15c1.88-2.18,3.28-4.77,4.21-7.77,.93-3,1.39-6.27,1.39-9.82,0-4.05-.57-7.57-1.7-10.57-1.14-3-2.71-5.5-4.73-7.5-2.02-2-4.41-3.5-7.17-4.5s-5.74-1.5-8.94-1.5H0Zm10.92,39.68v-30.68h7.79c2.69,0,4.95,.38,6.78,1.12,1.83,.75,3.3,1.83,4.42,3.24,1.11,1.41,1.91,3.1,2.4,5.08,.49,1.98,.73,4.19,.73,6.65,0,2.68-.35,4.95-1.04,6.82-.7,1.86-1.62,3.38-2.78,4.53-1.16,1.16-2.48,1.99-3.97,2.49-1.48,.5-3.01,.75-4.59,.75H10.92Z"/>
    </clipPath>
    <clipPath id="clippath-78">
      <rect class="cls-1" y="727" width="420" height="51"/>
    </clipPath>
    <clipPath id="clippath-79">
      <polygon class="cls-1" points="52.07 729.32 52.07 778 90.25 778 90.25 769 63.13 769 63.13 757.07 87.5 757.07 87.5 748.75 63.13 748.75 63.13 738.32 89.68 738.32 89.68 729.32 52.07 729.32"/>
    </clipPath>
    <clipPath id="clippath-80">
      <rect class="cls-1" y="727" width="420" height="51"/>
    </clipPath>
    <clipPath id="clippath-81">
      <polygon class="cls-1" points="122.69 778 138.84 729.32 127.8 729.32 116.83 763.55 116.69 763.55 105.85 729.32 94.88 729.32 110.62 778 122.69 778"/>
    </clipPath>
    <clipPath id="clippath-82">
      <rect class="cls-1" y="727" width="420" height="51"/>
    </clipPath>
    <clipPath id="clippath-83">
      <polygon class="cls-1" points="143.47 729.32 143.47 778 181.65 778 181.65 769 154.53 769 154.53 757.07 178.91 757.07 178.91 748.75 154.53 748.75 154.53 738.32 181.09 738.32 181.09 729.32 143.47 729.32"/>
    </clipPath>
    <clipPath id="clippath-84">
      <rect class="cls-1" y="727" width="420" height="51"/>
    </clipPath>
    <clipPath id="clippath-85">
      <polygon class="cls-1" points="188.59 729.32 188.59 778 223.31 778 223.31 769 199.39 769 199.39 729.32 188.59 729.32"/>
    </clipPath>
    <clipPath id="clippath-86">
      <rect class="cls-1" y="727" width="420" height="51"/>
    </clipPath>
    <clipPath id="clippath-87">
      <path class="cls-1" d="M230.25,752.74c0,3.55,.51,6.86,1.54,9.93,1.03,3.07,2.51,5.75,4.44,8.02,1.93,2.28,4.3,4.06,7.1,5.36,2.81,1.3,5.97,1.95,9.48,1.95s6.73-.65,9.51-1.95c2.79-1.3,5.14-3.08,7.07-5.36,1.93-2.28,3.41-4.95,4.44-8.02s1.54-6.38,1.54-9.93-.51-7.02-1.54-10.14c-1.03-3.12-2.51-5.84-4.44-8.16-1.93-2.32-4.29-4.14-7.07-5.46-2.79-1.32-5.96-1.98-9.51-1.98s-6.67,.66-9.48,1.98c-2.81,1.32-5.17,3.14-7.1,5.46-1.93,2.32-3.41,5.04-4.44,8.16-1.03,3.12-1.54,6.5-1.54,10.14Zm10.09,0c0-2.14,.22-4.21,.67-6.21,.45-2,1.17-3.79,2.15-5.36,.99-1.57,2.27-2.82,3.86-3.76,1.59-.93,3.51-1.4,5.79-1.4s4.2,.47,5.79,1.4c1.59,.93,2.87,2.18,3.86,3.76,.99,1.57,1.7,3.36,2.15,5.36,.45,2,.67,4.07,.67,6.21s-.22,4.04-.67,5.97c-.45,1.93-1.17,3.68-2.15,5.22-.99,1.55-2.27,2.79-3.86,3.72-1.59,.93-3.51,1.4-5.79,1.4s-4.2-.47-5.79-1.4c-1.59-.93-2.87-2.17-3.86-3.72-.99-1.55-1.7-3.29-2.15-5.22-.45-1.93-.67-3.93-.67-5.97Z"/>
    </clipPath>
    <clipPath id="clippath-88">
      <rect class="cls-1" y="727" width="420" height="51"/>
    </clipPath>
    <clipPath id="clippath-89">
      <path class="cls-1" d="M285.79,729.32v48.68h10.85v-17.45h11.41c3.09,0,5.72-.44,7.88-1.33,2.17-.89,3.93-2.06,5.29-3.51,1.36-1.45,2.35-3.12,2.97-5.01,.62-1.89,.93-3.81,.93-5.76s-.31-3.93-.93-5.8c-.62-1.86-1.61-3.52-2.97-4.98-1.36-1.45-3.12-2.62-5.29-3.51-2.17-.89-4.79-1.33-7.88-1.33h-22.26Zm10.85,22.91v-14.59h8.43c1.24,0,2.44,.09,3.6,.27,1.15,.18,2.17,.53,3.04,1.06,.88,.52,1.58,1.26,2.11,2.22,.53,.95,.8,2.2,.8,3.75s-.27,2.8-.8,3.75c-.53,.95-1.23,1.69-2.11,2.22-.88,.52-1.89,.88-3.04,1.06-1.15,.18-2.35,.27-3.6,.27h-8.43Z"/>
    </clipPath>
    <clipPath id="clippath-90">
      <rect class="cls-1" y="727" width="420" height="51"/>
    </clipPath>
    <clipPath id="clippath-91">
      <polygon class="cls-1" points="332.07 729.32 332.07 778 370.25 778 370.25 769 343.13 769 343.13 757.07 367.5 757.07 367.5 748.75 343.13 748.75 343.13 738.32 369.68 738.32 369.68 729.32 332.07 729.32"/>
    </clipPath>
    <clipPath id="clippath-92">
      <rect class="cls-1" y="727" width="420" height="51"/>
    </clipPath>
    <clipPath id="clippath-93">
      <path class="cls-1" d="M378.35,729.32v48.68h10.63v-19.02h10.63c2.66,0,4.58,.59,5.76,1.77,1.17,1.18,1.94,3.05,2.3,5.59,.27,1.95,.47,4,.61,6.14,.14,2.14,.5,3.98,1.08,5.52h10.63c-.5-.68-.87-1.51-1.12-2.49-.25-.98-.43-2.01-.54-3.1-.11-1.09-.19-2.16-.24-3.2-.05-1.05-.09-1.95-.14-2.73-.09-1.23-.26-2.45-.51-3.68-.25-1.23-.64-2.35-1.19-3.38-.54-1.02-1.24-1.91-2.1-2.66s-1.94-1.31-3.25-1.67v-.14c2.71-1.09,4.66-2.68,5.86-4.77s1.79-4.57,1.79-7.43c0-1.86-.33-3.6-.98-5.22-.65-1.61-1.6-3.03-2.84-4.26-1.24-1.23-2.73-2.19-4.47-2.9s-3.69-1.06-5.86-1.06h-26.08Zm10.63,22.02v-13.7h11.65c2.44,0,4.27,.53,5.49,1.6,1.22,1.07,1.83,2.78,1.83,5.15s-.61,4.23-1.83,5.32c-1.22,1.09-3.05,1.64-5.49,1.64h-11.65Z"/>
    </clipPath>
    <clipPath id="clippath-94">
      <rect class="cls-1" y="727" width="420" height="51"/>
    </clipPath>
    <clipPath id="clippath-95">
      <rect class="cls-1" x="2" width="412" height="52"/>
    </clipPath>
    <clipPath id="clippath-96">
      <polygon class="cls-1" points="2 0 2 50.84 13.22 50.84 13.22 29.84 34.59 29.84 34.59 21.15 13.22 21.15 13.22 9.4 37.88 9.4 37.88 0 2 0"/>
    </clipPath>
    <clipPath id="clippath-97">
      <rect class="cls-1" x="2" width="412" height="52"/>
    </clipPath>
    <clipPath id="clippath-98">
      <path class="cls-1" d="M44.82,0V50.84h11.23V30.98h11.23c2.81,0,4.84,.62,6.08,1.85,1.24,1.23,2.05,3.18,2.43,5.84,.29,2.04,.5,4.18,.64,6.41,.14,2.23,.52,4.15,1.14,5.77h11.23c-.52-.71-.92-1.58-1.18-2.6-.26-1.02-.45-2.1-.57-3.24-.12-1.14-.2-2.26-.25-3.35-.05-1.09-.1-2.04-.14-2.85-.1-1.28-.27-2.56-.54-3.85-.26-1.28-.68-2.46-1.25-3.52-.57-1.07-1.31-1.99-2.22-2.78-.91-.78-2.05-1.36-3.43-1.74v-.14c2.86-1.14,4.92-2.8,6.19-4.98,1.26-2.18,1.89-4.77,1.89-7.76,0-1.95-.35-3.76-1.04-5.45-.69-1.69-1.69-3.17-3-4.45-1.31-1.28-2.88-2.29-4.72-3.03-1.84-.74-3.9-1.1-6.19-1.1h-27.53Zm11.23,23V8.69h12.3c2.57,0,4.51,.56,5.79,1.67,1.29,1.12,1.93,2.91,1.93,5.38s-.64,4.41-1.93,5.55c-1.29,1.14-3.22,1.71-5.79,1.71h-12.3Z"/>
    </clipPath>
    <clipPath id="clippath-99">
      <rect class="cls-1" x="2" width="412" height="52"/>
    </clipPath>
    <clipPath id="clippath-100">
      <path class="cls-1" d="M94.58,26.24c0,3.62,.55,7,1.66,10.13,1.11,3.13,2.7,5.86,4.78,8.18,2.08,2.32,4.63,4.14,7.65,5.46,3.02,1.32,6.43,1.98,10.21,1.98s7.25-.66,10.25-1.98c3-1.32,5.54-3.14,7.62-5.46,2.08-2.32,3.67-5.05,4.78-8.18,1.11-3.13,1.66-6.51,1.66-10.13s-.55-7.16-1.66-10.34c-1.11-3.18-2.7-5.95-4.78-8.32-2.08-2.37-4.62-4.22-7.62-5.57-3-1.35-6.42-2.02-10.25-2.02s-7.19,.67-10.21,2.02c-3.02,1.35-5.57,3.2-7.65,5.57s-3.67,5.14-4.78,8.32c-1.11,3.18-1.66,6.62-1.66,10.34Zm10.87,0c0-2.18,.24-4.29,.73-6.33,.48-2.04,1.26-3.86,2.32-5.46,1.06-1.6,2.45-2.88,4.15-3.83,1.71-.95,3.79-1.43,6.23-1.43s4.52,.48,6.23,1.43c1.71,.95,3.09,2.23,4.15,3.83,1.06,1.6,1.83,3.42,2.32,5.46,.48,2.04,.73,4.15,.73,6.33s-.24,4.12-.73,6.09c-.48,1.97-1.26,3.75-2.32,5.33-1.06,1.58-2.45,2.84-4.15,3.79-1.71,.95-3.79,1.43-6.23,1.43s-4.52-.48-6.23-1.43c-1.71-.95-3.09-2.22-4.15-3.79-1.06-1.58-1.83-3.35-2.32-5.33-.48-1.97-.73-4-.73-6.09Z"/>
    </clipPath>
    <clipPath id="clippath-101">
      <rect class="cls-1" x="2" width="412" height="52"/>
    </clipPath>
    <clipPath id="clippath-102">
      <polygon class="cls-1" points="151.29 0 151.29 50.84 162.01 50.84 162.01 16.81 162.16 16.81 183.82 50.84 195.27 50.84 195.27 0 184.55 0 184.55 34.11 184.4 34.11 162.67 0 151.29 0"/>
    </clipPath>
    <clipPath id="clippath-103">
      <rect class="cls-1" x="2" width="412" height="52"/>
    </clipPath>
    <clipPath id="clippath-104">
      <polygon class="cls-1" points="216.3 9.4 216.3 50.84 227.48 50.84 227.48 9.4 242.72 9.4 242.72 0 201.06 0 201.06 9.4 216.3 9.4"/>
    </clipPath>
    <clipPath id="clippath-105">
      <rect class="cls-1" x="2" width="412" height="52"/>
    </clipPath>
    <clipPath id="clippath-106">
      <polygon class="cls-1" points="271.65 0 271.65 50.84 309.84 50.84 309.84 41.44 282.71 41.44 282.71 28.98 307.09 28.98 307.09 20.3 282.71 20.3 282.71 9.4 309.28 9.4 309.28 0 271.65 0"/>
    </clipPath>
    <clipPath id="clippath-107">
      <rect class="cls-1" x="2" width="412" height="52"/>
    </clipPath>
    <clipPath id="clippath-108">
      <polygon class="cls-1" points="315.63 0 315.63 50.84 326.35 50.84 326.35 16.81 326.5 16.81 348.16 50.84 359.61 50.84 359.61 0 348.89 0 348.89 34.11 348.74 34.11 327.01 0 315.63 0"/>
    </clipPath>
    <clipPath id="clippath-109">
      <rect class="cls-1" x="2" width="412" height="52"/>
    </clipPath>
    <clipPath id="clippath-110">
      <path class="cls-1" d="M370.02,0V50.84h21.43c3.8,0,7.11-.65,9.92-1.96,2.81-1.31,5.15-3.1,7.03-5.38,1.88-2.28,3.28-4.98,4.21-8.12,.93-3.13,1.39-6.55,1.39-10.25,0-4.23-.57-7.9-1.7-11.04-1.14-3.13-2.71-5.74-4.73-7.83-2.02-2.09-4.41-3.66-7.17-4.7-2.76-1.04-5.74-1.57-8.94-1.57h-21.43Zm10.92,41.44V9.4h7.79c2.69,0,4.95,.39,6.78,1.18,1.83,.78,3.31,1.91,4.42,3.38,1.11,1.47,1.91,3.24,2.4,5.31,.49,2.07,.73,4.38,.73,6.94,0,2.8-.35,5.17-1.04,7.12-.7,1.95-1.62,3.52-2.78,4.74-1.16,1.21-2.48,2.08-3.97,2.6-1.48,.52-3.02,.78-4.59,.78h-9.74Z"/>
    </clipPath>
    <clipPath id="clippath-111">
      <rect class="cls-1" x="2" width="412" height="52"/>
    </clipPath>
    <clipPath id="clippath-112">
      <rect class="cls-1" x="2" y="167" width="412" height="53"/>
    </clipPath>
    <clipPath id="clippath-113">
      <polygon class="cls-1" points="2 167 2 217.7 13.22 217.7 13.22 196.75 34.59 196.75 34.59 188.09 13.22 188.09 13.22 176.37 37.88 176.37 37.88 167 2 167"/>
    </clipPath>
    <clipPath id="clippath-114">
      <rect class="cls-1" x="2" y="167" width="412" height="53"/>
    </clipPath>
    <clipPath id="clippath-115">
      <path class="cls-1" d="M44.82,167v50.7h11.23v-19.81h11.23c2.81,0,4.84,.62,6.08,1.85s2.05,3.17,2.43,5.82c.29,2.04,.5,4.17,.64,6.39,.14,2.22,.52,4.14,1.14,5.75h11.23c-.52-.71-.92-1.57-1.18-2.59s-.45-2.09-.57-3.23-.2-2.25-.25-3.34c-.05-1.09-.1-2.04-.14-2.84-.1-1.28-.27-2.56-.54-3.83-.26-1.28-.68-2.45-1.25-3.51-.57-1.07-1.31-1.99-2.22-2.77-.91-.78-2.05-1.36-3.43-1.74v-.14c2.86-1.14,4.92-2.79,6.19-4.97,1.26-2.18,1.89-4.76,1.89-7.74,0-1.94-.35-3.75-1.04-5.43-.69-1.68-1.69-3.16-3-4.44-1.31-1.28-2.88-2.28-4.72-3.02-1.84-.73-3.9-1.1-6.19-1.1h-27.53Zm11.23,22.93v-14.27h12.3c2.57,0,4.51,.56,5.79,1.67,1.29,1.11,1.93,2.9,1.93,5.36s-.64,4.4-1.93,5.54c-1.29,1.14-3.22,1.7-5.79,1.7h-12.3Z"/>
    </clipPath>
    <clipPath id="clippath-116">
      <rect class="cls-1" x="2" y="167" width="412" height="53"/>
    </clipPath>
    <clipPath id="clippath-117">
      <path class="cls-1" d="M94.58,194.32c0,3.61,.55,6.98,1.66,10.1,1.11,3.12,2.7,5.84,4.78,8.16s4.63,4.13,7.65,5.45c3.02,1.32,6.43,1.98,10.21,1.98s7.25-.66,10.25-1.98c3-1.32,5.54-3.14,7.62-5.45,2.08-2.31,3.67-5.03,4.78-8.16,1.11-3.12,1.66-6.49,1.66-10.1s-.55-7.14-1.66-10.31c-1.11-3.17-2.7-5.93-4.78-8.29-2.08-2.36-4.62-4.21-7.62-5.55-3-1.34-6.42-2.01-10.25-2.01s-7.19,.67-10.21,2.01c-3.02,1.34-5.57,3.19-7.65,5.55-2.08,2.36-3.67,5.12-4.78,8.29-1.11,3.17-1.66,6.61-1.66,10.31Zm10.87,0c0-2.17,.24-4.28,.73-6.32,.48-2.04,1.26-3.85,2.32-5.45,1.06-1.6,2.45-2.87,4.15-3.82,1.71-.95,3.79-1.42,6.23-1.42s4.52,.47,6.23,1.42c1.71,.95,3.09,2.22,4.15,3.82,1.06,1.6,1.83,3.41,2.32,5.45,.48,2.04,.73,4.14,.73,6.32s-.24,4.11-.73,6.07c-.48,1.97-1.26,3.74-2.32,5.31-1.06,1.57-2.45,2.83-4.15,3.78-1.71,.95-3.79,1.42-6.23,1.42s-4.52-.47-6.23-1.42-3.09-2.21-4.15-3.78c-1.06-1.57-1.83-3.34-2.32-5.31-.48-1.97-.73-3.99-.73-6.07Z"/>
    </clipPath>
    <clipPath id="clippath-118">
      <rect class="cls-1" x="2" y="167" width="412" height="53"/>
    </clipPath>
    <clipPath id="clippath-119">
      <polygon class="cls-1" points="151.29 167 151.29 217.7 162.01 217.7 162.01 183.76 162.16 183.76 183.82 217.7 195.27 217.7 195.27 167 184.55 167 184.55 201.01 184.4 201.01 162.67 167 151.29 167"/>
    </clipPath>
    <clipPath id="clippath-120">
      <rect class="cls-1" x="2" y="167" width="412" height="53"/>
    </clipPath>
    <clipPath id="clippath-121">
      <polygon class="cls-1" points="216.3 176.37 216.3 217.7 227.48 217.7 227.48 176.37 242.72 176.37 242.72 167 201.06 167 201.06 176.37 216.3 176.37"/>
    </clipPath>
    <clipPath id="clippath-122">
      <rect class="cls-1" x="2" y="167" width="412" height="53"/>
    </clipPath>
    <clipPath id="clippath-123">
      <polygon class="cls-1" points="271.65 167 271.65 217.7 309.84 217.7 309.84 208.32 282.71 208.32 282.71 195.9 307.09 195.9 307.09 187.24 282.71 187.24 282.71 176.37 309.28 176.37 309.28 167 271.65 167"/>
    </clipPath>
    <clipPath id="clippath-124">
      <rect class="cls-1" x="2" y="167" width="412" height="53"/>
    </clipPath>
    <clipPath id="clippath-125">
      <polygon class="cls-1" points="315.63 167 315.63 217.7 326.35 217.7 326.35 183.76 326.5 183.76 348.16 217.7 359.61 217.7 359.61 167 348.89 167 348.89 201.01 348.74 201.01 327.01 167 315.63 167"/>
    </clipPath>
    <clipPath id="clippath-126">
      <rect class="cls-1" x="2" y="167" width="412" height="53"/>
    </clipPath>
    <clipPath id="clippath-127">
      <path class="cls-1" d="M370.02,167v50.7h21.43c3.8,0,7.11-.65,9.92-1.95,2.81-1.3,5.15-3.09,7.03-5.36,1.88-2.27,3.28-4.97,4.21-8.09,.93-3.12,1.39-6.53,1.39-10.22,0-4.21-.57-7.88-1.7-11.01-1.14-3.12-2.71-5.73-4.73-7.81-2.02-2.08-4.41-3.64-7.17-4.69-2.76-1.04-5.74-1.56-8.94-1.56h-21.43Zm10.92,41.32v-31.95h7.79c2.69,0,4.95,.39,6.78,1.17,1.83,.78,3.31,1.91,4.42,3.37,1.11,1.47,1.91,3.23,2.4,5.29,.49,2.06,.73,4.37,.73,6.92,0,2.79-.35,5.16-1.04,7.1-.7,1.94-1.62,3.51-2.78,4.72-1.16,1.21-2.48,2.07-3.97,2.59s-3.02,.78-4.59,.78h-9.74Z"/>
    </clipPath>
    <clipPath id="clippath-128">
      <rect class="cls-1" x="2" y="167" width="412" height="53"/>
    </clipPath>
    <clipPath id="clippath-129">
      <rect class="cls-1" x="2" y="332" width="412" height="53"/>
    </clipPath>
    <clipPath id="clippath-130">
      <polygon class="cls-1" points="2 332 2 382.7 13.22 382.7 13.22 361.75 34.59 361.75 34.59 353.09 13.22 353.09 13.22 341.37 37.88 341.37 37.88 332 2 332"/>
    </clipPath>
    <clipPath id="clippath-131">
      <rect class="cls-1" x="2" y="332" width="412" height="53"/>
    </clipPath>
    <clipPath id="clippath-132">
      <path class="cls-1" d="M44.82,332v50.7h11.23v-19.81h11.23c2.81,0,4.84,.62,6.08,1.85,1.24,1.23,2.05,3.17,2.43,5.82,.29,2.04,.5,4.17,.64,6.39,.14,2.22,.52,4.14,1.14,5.75h11.23c-.52-.71-.92-1.57-1.18-2.59s-.45-2.09-.57-3.23c-.12-1.14-.2-2.25-.25-3.34-.05-1.09-.1-2.04-.14-2.84-.1-1.28-.27-2.56-.54-3.83-.26-1.28-.68-2.45-1.25-3.51-.57-1.07-1.31-1.99-2.22-2.77-.91-.78-2.05-1.36-3.43-1.74v-.14c2.86-1.14,4.92-2.79,6.19-4.97,1.26-2.18,1.89-4.76,1.89-7.74,0-1.94-.35-3.75-1.04-5.43-.69-1.68-1.69-3.16-3-4.44-1.31-1.28-2.88-2.28-4.72-3.02-1.84-.73-3.9-1.1-6.19-1.1h-27.53Zm11.23,22.93v-14.27h12.3c2.57,0,4.51,.56,5.79,1.67,1.29,1.11,1.93,2.9,1.93,5.36s-.64,4.4-1.93,5.54c-1.29,1.14-3.22,1.7-5.79,1.7h-12.3Z"/>
    </clipPath>
    <clipPath id="clippath-133">
      <rect class="cls-1" x="2" y="332" width="412" height="53"/>
    </clipPath>
    <clipPath id="clippath-134">
      <path class="cls-1" d="M94.58,359.32c0,3.61,.55,6.98,1.66,10.1,1.11,3.12,2.7,5.84,4.78,8.16s4.63,4.13,7.65,5.45c3.02,1.32,6.43,1.98,10.21,1.98s7.25-.66,10.25-1.98c3-1.32,5.54-3.14,7.62-5.45,2.08-2.31,3.67-5.03,4.78-8.16,1.11-3.12,1.66-6.49,1.66-10.1s-.55-7.14-1.66-10.31c-1.11-3.17-2.7-5.93-4.78-8.29-2.08-2.36-4.62-4.21-7.62-5.55-3-1.34-6.42-2.01-10.25-2.01s-7.19,.67-10.21,2.01c-3.02,1.34-5.57,3.19-7.65,5.55-2.08,2.36-3.67,5.12-4.78,8.29-1.11,3.17-1.66,6.61-1.66,10.31Zm10.87,0c0-2.17,.24-4.28,.73-6.32s1.26-3.85,2.32-5.45c1.06-1.6,2.45-2.87,4.15-3.82,1.71-.95,3.79-1.42,6.23-1.42s4.52,.47,6.23,1.42c1.71,.95,3.09,2.22,4.15,3.82,1.06,1.6,1.83,3.41,2.32,5.45,.48,2.04,.73,4.14,.73,6.32s-.24,4.11-.73,6.07c-.48,1.97-1.26,3.74-2.32,5.31-1.06,1.57-2.45,2.83-4.15,3.78-1.71,.95-3.79,1.42-6.23,1.42s-4.52-.47-6.23-1.42c-1.71-.95-3.09-2.21-4.15-3.78-1.06-1.57-1.83-3.34-2.32-5.31-.48-1.97-.73-3.99-.73-6.07Z"/>
    </clipPath>
    <clipPath id="clippath-135">
      <rect class="cls-1" x="2" y="332" width="412" height="53"/>
    </clipPath>
    <clipPath id="clippath-136">
      <polygon class="cls-1" points="151.29 332 151.29 382.7 162.01 382.7 162.01 348.76 162.16 348.76 183.82 382.7 195.27 382.7 195.27 332 184.55 332 184.55 366.01 184.4 366.01 162.67 332 151.29 332"/>
    </clipPath>
    <clipPath id="clippath-137">
      <rect class="cls-1" x="2" y="332" width="412" height="53"/>
    </clipPath>
    <clipPath id="clippath-138">
      <polygon class="cls-1" points="216.3 341.37 216.3 382.7 227.48 382.7 227.48 341.37 242.72 341.37 242.72 332 201.06 332 201.06 341.37 216.3 341.37"/>
    </clipPath>
    <clipPath id="clippath-139">
      <rect class="cls-1" x="2" y="332" width="412" height="53"/>
    </clipPath>
    <clipPath id="clippath-140">
      <polygon class="cls-1" points="271.65 332 271.65 382.7 309.84 382.7 309.84 373.32 282.71 373.32 282.71 360.9 307.09 360.9 307.09 352.24 282.71 352.24 282.71 341.37 309.28 341.37 309.28 332 271.65 332"/>
    </clipPath>
    <clipPath id="clippath-141">
      <rect class="cls-1" x="2" y="332" width="412" height="53"/>
    </clipPath>
    <clipPath id="clippath-142">
      <polygon class="cls-1" points="315.63 332 315.63 382.7 326.35 382.7 326.35 348.76 326.5 348.76 348.16 382.7 359.61 382.7 359.61 332 348.89 332 348.89 366.01 348.74 366.01 327.01 332 315.63 332"/>
    </clipPath>
    <clipPath id="clippath-143">
      <rect class="cls-1" x="2" y="332" width="412" height="53"/>
    </clipPath>
    <clipPath id="clippath-144">
      <path class="cls-1" d="M370.02,332v50.7h21.43c3.8,0,7.11-.65,9.92-1.95,2.81-1.3,5.15-3.09,7.03-5.36,1.88-2.27,3.28-4.97,4.21-8.09,.93-3.12,1.39-6.53,1.39-10.22,0-4.21-.57-7.88-1.7-11.01-1.14-3.12-2.71-5.73-4.73-7.81-2.02-2.08-4.41-3.64-7.17-4.69-2.76-1.04-5.74-1.56-8.94-1.56h-21.43Zm10.92,41.32v-31.95h7.79c2.69,0,4.95,.39,6.78,1.17,1.83,.78,3.31,1.91,4.42,3.37,1.11,1.47,1.91,3.23,2.4,5.29,.49,2.06,.73,4.37,.73,6.92,0,2.79-.35,5.16-1.04,7.1-.7,1.94-1.62,3.51-2.78,4.72-1.16,1.21-2.48,2.07-3.97,2.59s-3.02,.78-4.59,.78h-9.74Z"/>
    </clipPath>
    <clipPath id="clippath-145">
      <rect class="cls-1" x="2" y="332" width="412" height="53"/>
    </clipPath>
    <clipPath id="clippath-146">
      <rect class="cls-1" x="2" y="489" width="412" height="53"/>
    </clipPath>
    <clipPath id="clippath-147">
      <polygon class="cls-1" points="2 489 2 539.7 13.22 539.7 13.22 518.75 34.59 518.75 34.59 510.09 13.22 510.09 13.22 498.37 37.88 498.37 37.88 489 2 489"/>
    </clipPath>
    <clipPath id="clippath-148">
      <rect class="cls-1" x="2" y="489" width="412" height="53"/>
    </clipPath>
    <clipPath id="clippath-149">
      <path class="cls-1" d="M44.82,489v50.7h11.23v-19.81h11.23c2.81,0,4.84,.62,6.08,1.85,1.24,1.23,2.05,3.17,2.43,5.82,.29,2.04,.5,4.17,.64,6.39,.14,2.22,.52,4.14,1.14,5.75h11.23c-.52-.71-.92-1.57-1.18-2.59s-.45-2.09-.57-3.23c-.12-1.14-.2-2.25-.25-3.34-.05-1.09-.1-2.04-.14-2.84-.1-1.28-.27-2.56-.54-3.83-.26-1.28-.68-2.45-1.25-3.51-.57-1.07-1.31-1.99-2.22-2.77-.91-.78-2.05-1.36-3.43-1.74v-.14c2.86-1.14,4.92-2.79,6.19-4.97,1.26-2.18,1.89-4.76,1.89-7.74,0-1.94-.35-3.75-1.04-5.43-.69-1.68-1.69-3.16-3-4.44-1.31-1.28-2.88-2.28-4.72-3.02-1.84-.73-3.9-1.1-6.19-1.1h-27.53Zm11.23,22.93v-14.27h12.3c2.57,0,4.51,.56,5.79,1.67,1.29,1.11,1.93,2.9,1.93,5.36s-.64,4.4-1.93,5.54c-1.29,1.14-3.22,1.7-5.79,1.7h-12.3Z"/>
    </clipPath>
    <clipPath id="clippath-150">
      <rect class="cls-1" x="2" y="489" width="412" height="53"/>
    </clipPath>
    <clipPath id="clippath-151">
      <path class="cls-1" d="M94.58,516.32c0,3.61,.55,6.98,1.66,10.1,1.11,3.12,2.7,5.84,4.78,8.16s4.63,4.13,7.65,5.45c3.02,1.32,6.43,1.98,10.21,1.98s7.25-.66,10.25-1.98c3-1.32,5.54-3.13,7.62-5.45,2.08-2.31,3.67-5.03,4.78-8.16,1.11-3.12,1.66-6.49,1.66-10.1s-.55-7.14-1.66-10.31c-1.11-3.17-2.7-5.93-4.78-8.29-2.08-2.36-4.62-4.21-7.62-5.55-3-1.34-6.42-2.01-10.25-2.01s-7.19,.67-10.21,2.01c-3.02,1.34-5.57,3.19-7.65,5.55-2.08,2.36-3.67,5.12-4.78,8.29-1.11,3.17-1.66,6.61-1.66,10.31Zm10.87,0c0-2.17,.24-4.28,.73-6.32s1.26-3.85,2.32-5.45c1.06-1.6,2.45-2.87,4.15-3.82,1.71-.95,3.79-1.42,6.23-1.42s4.52,.47,6.23,1.42c1.71,.95,3.09,2.22,4.15,3.82,1.06,1.6,1.83,3.41,2.32,5.45,.48,2.04,.73,4.14,.73,6.32s-.24,4.11-.73,6.07c-.48,1.97-1.26,3.74-2.32,5.31-1.06,1.57-2.45,2.83-4.15,3.78-1.71,.95-3.79,1.42-6.23,1.42s-4.52-.47-6.23-1.42c-1.71-.95-3.09-2.21-4.15-3.78-1.06-1.57-1.83-3.34-2.32-5.31-.48-1.97-.73-3.99-.73-6.07Z"/>
    </clipPath>
    <clipPath id="clippath-152">
      <rect class="cls-1" x="2" y="489" width="412" height="53"/>
    </clipPath>
    <clipPath id="clippath-153">
      <polygon class="cls-1" points="151.29 489 151.29 539.7 162.01 539.7 162.01 505.76 162.16 505.76 183.82 539.7 195.27 539.7 195.27 489 184.55 489 184.55 523.01 184.4 523.01 162.67 489 151.29 489"/>
    </clipPath>
    <clipPath id="clippath-154">
      <rect class="cls-1" x="2" y="489" width="412" height="53"/>
    </clipPath>
    <clipPath id="clippath-155">
      <polygon class="cls-1" points="216.3 498.37 216.3 539.7 227.48 539.7 227.48 498.37 242.72 498.37 242.72 489 201.06 489 201.06 498.37 216.3 498.37"/>
    </clipPath>
    <clipPath id="clippath-156">
      <rect class="cls-1" x="2" y="489" width="412" height="53"/>
    </clipPath>
    <clipPath id="clippath-157">
      <polygon class="cls-1" points="271.65 489 271.65 539.7 309.84 539.7 309.84 530.32 282.71 530.32 282.71 517.9 307.09 517.9 307.09 509.24 282.71 509.24 282.71 498.37 309.28 498.37 309.28 489 271.65 489"/>
    </clipPath>
    <clipPath id="clippath-158">
      <rect class="cls-1" x="2" y="489" width="412" height="53"/>
    </clipPath>
    <clipPath id="clippath-159">
      <polygon class="cls-1" points="315.63 489 315.63 539.7 326.35 539.7 326.35 505.76 326.5 505.76 348.16 539.7 359.61 539.7 359.61 489 348.89 489 348.89 523.01 348.74 523.01 327.01 489 315.63 489"/>
    </clipPath>
    <clipPath id="clippath-160">
      <rect class="cls-1" x="2" y="489" width="412" height="53"/>
    </clipPath>
    <clipPath id="clippath-161">
      <path class="cls-1" d="M370.02,489v50.7h21.43c3.8,0,7.11-.65,9.92-1.95,2.81-1.3,5.15-3.09,7.03-5.36,1.88-2.27,3.28-4.97,4.21-8.09,.93-3.12,1.39-6.53,1.39-10.22,0-4.21-.57-7.88-1.7-11.01-1.14-3.12-2.71-5.73-4.73-7.81-2.02-2.08-4.41-3.64-7.17-4.69-2.76-1.04-5.74-1.56-8.94-1.56h-21.43Zm10.92,41.32v-31.95h7.79c2.69,0,4.95,.39,6.78,1.17,1.83,.78,3.31,1.91,4.42,3.37,1.11,1.47,1.91,3.23,2.4,5.29,.49,2.06,.73,4.37,.73,6.92,0,2.79-.35,5.16-1.04,7.1-.7,1.94-1.62,3.51-2.78,4.72-1.16,1.21-2.48,2.07-3.97,2.59-1.48,.52-3.02,.78-4.59,.78h-9.74Z"/>
    </clipPath>
    <clipPath id="clippath-162">
      <rect class="cls-1" x="2" y="489" width="412" height="53"/>
    </clipPath>
    <clipPath id="clippath-163">
      <rect class="cls-1" x="2" y="647" width="412" height="54"/>
    </clipPath>
    <clipPath id="clippath-164">
      <polygon class="cls-1" points="2 647 2 697.7 13.22 697.7 13.22 676.75 34.59 676.75 34.59 668.09 13.22 668.09 13.22 656.37 37.88 656.37 37.88 647 2 647"/>
    </clipPath>
    <clipPath id="clippath-165">
      <rect class="cls-1" x="2" y="647" width="412" height="54"/>
    </clipPath>
    <clipPath id="clippath-166">
      <path class="cls-1" d="M44.82,647v50.7h11.23v-19.81h11.23c2.81,0,4.84,.62,6.08,1.85,1.24,1.23,2.05,3.17,2.43,5.82,.29,2.04,.5,4.17,.64,6.39,.14,2.22,.52,4.14,1.14,5.75h11.23c-.52-.71-.92-1.57-1.18-2.59s-.45-2.09-.57-3.23c-.12-1.14-.2-2.25-.25-3.34-.05-1.09-.1-2.04-.14-2.84-.1-1.28-.27-2.56-.54-3.83s-.68-2.45-1.25-3.51c-.57-1.07-1.31-1.99-2.22-2.77-.91-.78-2.05-1.36-3.43-1.74v-.14c2.86-1.14,4.92-2.79,6.19-4.97s1.89-4.76,1.89-7.74c0-1.94-.35-3.75-1.04-5.43-.69-1.68-1.69-3.16-3-4.44-1.31-1.28-2.88-2.28-4.72-3.02-1.84-.73-3.9-1.1-6.19-1.1h-27.53Zm11.23,22.93v-14.27h12.3c2.57,0,4.51,.56,5.79,1.67,1.29,1.11,1.93,2.9,1.93,5.36s-.64,4.4-1.93,5.54c-1.29,1.14-3.22,1.7-5.79,1.7h-12.3Z"/>
    </clipPath>
    <clipPath id="clippath-167">
      <rect class="cls-1" x="2" y="647" width="412" height="54"/>
    </clipPath>
    <clipPath id="clippath-168">
      <path class="cls-1" d="M94.58,674.32c0,3.61,.55,6.98,1.66,10.1,1.11,3.12,2.7,5.84,4.78,8.16,2.08,2.31,4.63,4.13,7.65,5.45,3.02,1.32,6.43,1.98,10.21,1.98s7.25-.66,10.25-1.98c3-1.32,5.54-3.13,7.62-5.45,2.08-2.31,3.67-5.03,4.78-8.16,1.11-3.12,1.66-6.49,1.66-10.1s-.55-7.14-1.66-10.31c-1.11-3.17-2.7-5.93-4.78-8.29-2.08-2.36-4.62-4.21-7.62-5.55-3-1.34-6.42-2.01-10.25-2.01s-7.19,.67-10.21,2.01-5.57,3.19-7.65,5.55c-2.08,2.36-3.67,5.12-4.78,8.29-1.11,3.17-1.66,6.61-1.66,10.31Zm10.87,0c0-2.17,.24-4.28,.73-6.32,.48-2.04,1.26-3.85,2.32-5.45,1.06-1.6,2.45-2.87,4.15-3.82s3.79-1.42,6.23-1.42,4.52,.47,6.23,1.42c1.71,.95,3.09,2.22,4.15,3.82,1.06,1.6,1.83,3.41,2.32,5.45,.48,2.04,.73,4.14,.73,6.32s-.24,4.11-.73,6.07c-.48,1.97-1.26,3.74-2.32,5.31s-2.45,2.83-4.15,3.78c-1.71,.95-3.79,1.42-6.23,1.42s-4.52-.47-6.23-1.42c-1.71-.95-3.09-2.21-4.15-3.78s-1.83-3.34-2.32-5.31-.73-3.99-.73-6.07Z"/>
    </clipPath>
    <clipPath id="clippath-169">
      <rect class="cls-1" x="2" y="647" width="412" height="54"/>
    </clipPath>
    <clipPath id="clippath-170">
      <polygon class="cls-1" points="151.29 647 151.29 697.7 162.01 697.7 162.01 663.76 162.16 663.76 183.82 697.7 195.27 697.7 195.27 647 184.55 647 184.55 681.01 184.4 681.01 162.67 647 151.29 647"/>
    </clipPath>
    <clipPath id="clippath-171">
      <rect class="cls-1" x="2" y="647" width="412" height="54"/>
    </clipPath>
    <clipPath id="clippath-172">
      <polygon class="cls-1" points="216.3 656.37 216.3 697.7 227.48 697.7 227.48 656.37 242.72 656.37 242.72 647 201.06 647 201.06 656.37 216.3 656.37"/>
    </clipPath>
    <clipPath id="clippath-173">
      <rect class="cls-1" x="2" y="647" width="412" height="54"/>
    </clipPath>
    <clipPath id="clippath-174">
      <polygon class="cls-1" points="271.65 647 271.65 697.7 309.84 697.7 309.84 688.32 282.71 688.32 282.71 675.9 307.09 675.9 307.09 667.24 282.71 667.24 282.71 656.37 309.28 656.37 309.28 647 271.65 647"/>
    </clipPath>
    <clipPath id="clippath-175">
      <rect class="cls-1" x="2" y="647" width="412" height="54"/>
    </clipPath>
    <clipPath id="clippath-176">
      <polygon class="cls-1" points="315.63 647 315.63 697.7 326.35 697.7 326.35 663.76 326.5 663.76 348.16 697.7 359.61 697.7 359.61 647 348.89 647 348.89 681.01 348.74 681.01 327.01 647 315.63 647"/>
    </clipPath>
    <clipPath id="clippath-177">
      <rect class="cls-1" x="2" y="647" width="412" height="54"/>
    </clipPath>
    <clipPath id="clippath-178">
      <path class="cls-1" d="M370.02,647v50.7h21.43c3.8,0,7.11-.65,9.92-1.95,2.81-1.3,5.15-3.09,7.03-5.36,1.88-2.27,3.28-4.97,4.21-8.09s1.39-6.53,1.39-10.22c0-4.21-.57-7.88-1.7-11.01-1.14-3.12-2.71-5.73-4.73-7.81-2.02-2.08-4.41-3.64-7.17-4.69-2.76-1.04-5.74-1.56-8.94-1.56h-21.43Zm10.92,41.32v-31.95h7.79c2.69,0,4.95,.39,6.78,1.17,1.83,.78,3.31,1.91,4.42,3.37,1.11,1.47,1.91,3.23,2.4,5.29,.49,2.06,.73,4.37,.73,6.92,0,2.79-.35,5.16-1.04,7.1-.7,1.94-1.62,3.51-2.78,4.72-1.16,1.21-2.48,2.07-3.97,2.59s-3.02,.78-4.59,.78h-9.74Z"/>
    </clipPath>
    <clipPath id="clippath-179">
      <rect class="cls-1" x="2" y="647" width="412" height="54"/>
    </clipPath>
  </defs>
  <g id="Layer_1-2" data-name="Layer 1">
    <g>
      <g class="cls-104">
        <g class="cls-2">
          <g class="cls-5">
            <g class="cls-8">
              <rect class="cls-3" x="-1" y="80.16" width="45.97" height="50.68"/>
            </g>
          </g>
          <g class="cls-7">
            <g class="cls-6">
              <rect class="cls-3" x="51.07" y="80.16" width="40.18" height="50.68"/>
            </g>
          </g>
          <g class="cls-12">
            <g class="cls-11">
              <rect class="cls-3" x="93.88" y="80.16" width="45.97" height="50.68"/>
            </g>
          </g>
          <g class="cls-9">
            <g class="cls-10">
              <rect class="cls-3" x="142.47" y="80.16" width="40.18" height="50.68"/>
            </g>
          </g>
          <g class="cls-13">
            <g class="cls-97">
              <rect class="cls-3" x="187.59" y="80.16" width="36.71" height="50.68"/>
            </g>
          </g>
          <g class="cls-102">
            <g class="cls-96">
              <rect class="cls-3" x="229.25" y="79" width="47.12" height="53"/>
            </g>
          </g>
          <g class="cls-95">
            <g class="cls-94">
              <rect class="cls-3" x="284.79" y="80.16" width="41.34" height="50.68"/>
            </g>
          </g>
          <g class="cls-98">
            <g class="cls-100">
              <rect class="cls-3" x="331.07" y="80.16" width="40.18" height="50.68"/>
            </g>
          </g>
          <g class="cls-99">
            <g class="cls-103">
              <rect class="cls-3" x="377.35" y="80.16" width="43.65" height="50.68"/>
            </g>
          </g>
        </g>
      </g>
      <g class="cls-104">
        <g class="cls-101">
          <g class="cls-16">
            <g class="cls-17">
              <rect class="cls-3" x="-1" y="247.16" width="45.97" height="50.68"/>
            </g>
          </g>
          <g class="cls-20">
            <g class="cls-19">
              <rect class="cls-3" x="51.07" y="247.16" width="40.18" height="50.68"/>
            </g>
          </g>
          <g class="cls-18">
            <g class="cls-21">
              <rect class="cls-3" x="93.88" y="247.16" width="45.97" height="50.68"/>
            </g>
          </g>
          <g class="cls-45">
            <g class="cls-43">
              <rect class="cls-3" x="142.47" y="247.16" width="40.18" height="50.68"/>
            </g>
          </g>
          <g class="cls-44">
            <g class="cls-46">
              <rect class="cls-3" x="187.59" y="247.16" width="36.71" height="50.68"/>
            </g>
          </g>
          <g class="cls-54">
            <g class="cls-56">
              <rect class="cls-3" x="229.25" y="246" width="47.12" height="53"/>
            </g>
          </g>
          <g class="cls-53">
            <g class="cls-52">
              <rect class="cls-3" x="284.79" y="247.16" width="41.34" height="50.68"/>
            </g>
          </g>
          <g class="cls-47">
            <g class="cls-48">
              <rect class="cls-3" x="331.07" y="247.16" width="40.18" height="50.68"/>
            </g>
          </g>
          <g class="cls-49">
            <g class="cls-50">
              <rect class="cls-3" x="377.35" y="247.16" width="43.65" height="50.68"/>
            </g>
          </g>
        </g>
      </g>
      <g class="cls-104">
        <g class="cls-55">
          <g class="cls-51">
            <g class="cls-24">
              <rect class="cls-3" x="-1" y="413.32" width="45.97" height="50.68"/>
            </g>
          </g>
          <g class="cls-26">
            <g class="cls-25">
              <rect class="cls-3" x="51.07" y="413.32" width="40.18" height="50.68"/>
            </g>
          </g>
          <g class="cls-28">
            <g class="cls-22">
              <rect class="cls-3" x="93.88" y="413.32" width="45.97" height="50.68"/>
            </g>
          </g>
          <g class="cls-23">
            <g class="cls-29">
              <rect class="cls-3" x="142.47" y="413.32" width="40.18" height="50.68"/>
            </g>
          </g>
          <g class="cls-27">
            <g class="cls-30">
              <rect class="cls-3" x="187.59" y="413.32" width="36.71" height="50.68"/>
            </g>
          </g>
          <g class="cls-31">
            <g class="cls-68">
              <rect class="cls-3" x="229.25" y="411" width="47.12" height="53"/>
            </g>
          </g>
          <g class="cls-69">
            <g class="cls-70">
              <rect class="cls-3" x="284.79" y="413.32" width="41.34" height="50.68"/>
            </g>
          </g>
          <g class="cls-66">
            <g class="cls-67">
              <rect class="cls-3" x="331.07" y="413.32" width="40.18" height="50.68"/>
            </g>
          </g>
          <g class="cls-71">
            <g class="cls-72">
              <rect class="cls-3" x="377.35" y="413.32" width="43.65" height="50.68"/>
            </g>
          </g>
        </g>
      </g>
      <g class="cls-104">
        <g class="cls-73">
          <g class="cls-74">
            <g class="cls-82">
              <rect class="cls-3" x="-1" y="571.32" width="45.97" height="50.68"/>
            </g>
          </g>
          <g class="cls-14">
            <g class="cls-76">
              <rect class="cls-3" x="51.07" y="571.32" width="40.18" height="50.68"/>
            </g>
          </g>
          <g class="cls-78">
            <g class="cls-84">
              <rect class="cls-3" x="93.88" y="571.32" width="45.97" height="50.68"/>
            </g>
          </g>
          <g class="cls-77">
            <g class="cls-83">
              <rect class="cls-3" x="142.47" y="571.32" width="40.18" height="50.68"/>
            </g>
          </g>
          <g class="cls-85">
            <g class="cls-80">
              <rect class="cls-3" x="187.59" y="571.32" width="36.71" height="50.68"/>
            </g>
          </g>
          <g class="cls-79">
            <g class="cls-15">
              <rect class="cls-3" x="229.25" y="569" width="47.12" height="53"/>
            </g>
          </g>
          <g class="cls-86">
            <g class="cls-90">
              <rect class="cls-3" x="284.79" y="571.32" width="41.34" height="50.68"/>
            </g>
          </g>
          <g class="cls-88">
            <g class="cls-81">
              <rect class="cls-3" x="331.07" y="571.32" width="40.18" height="50.68"/>
            </g>
          </g>
          <g class="cls-92">
            <g class="cls-87">
              <rect class="cls-3" x="377.35" y="571.32" width="43.65" height="50.68"/>
            </g>
          </g>
        </g>
      </g>
      <g class="cls-104">
        <g class="cls-93">
          <g class="cls-91">
            <g class="cls-89">
              <rect class="cls-3" x="-1" y="728.32" width="45.97" height="50.68"/>
            </g>
          </g>
          <g class="cls-75">
            <g class="cls-38">
              <rect class="cls-3" x="51.07" y="728.32" width="40.18" height="50.68"/>
            </g>
          </g>
          <g class="cls-35">
            <g class="cls-40">
              <rect class="cls-3" x="93.88" y="728.32" width="45.97" height="50.68"/>
            </g>
          </g>
          <g class="cls-36">
            <g class="cls-32">
              <rect class="cls-3" x="142.47" y="728.32" width="40.18" height="50.68"/>
            </g>
          </g>
          <g class="cls-37">
            <g class="cls-34">
              <rect class="cls-3" x="187.59" y="728.32" width="36.71" height="50.68"/>
            </g>
          </g>
          <g class="cls-39">
            <g class="cls-33">
              <rect class="cls-3" x="229.25" y="726" width="47.12" height="53"/>
            </g>
          </g>
          <g class="cls-42">
            <g class="cls-63">
              <rect class="cls-3" x="284.79" y="728.32" width="41.34" height="50.68"/>
            </g>
          </g>
          <g class="cls-61">
            <g class="cls-64">
              <rect class="cls-3" x="331.07" y="728.32" width="40.18" height="50.68"/>
            </g>
          </g>
          <g class="cls-59">
            <g class="cls-60">
              <rect class="cls-3" x="377.35" y="728.32" width="43.65" height="50.68"/>
            </g>
          </g>
        </g>
      </g>
      <g class="cls-104">
        <g class="cls-57">
          <g class="cls-62">
            <g class="cls-65">
              <rect class="cls-4" x="1" y="-1" width="37.88" height="52.84"/>
            </g>
          </g>
          <g class="cls-41">
            <g class="cls-58">
              <rect class="cls-4" x="43.82" y="-1" width="45.98" height="52.84"/>
            </g>
          </g>
          <g class="cls-136">
            <g class="cls-142">
              <rect class="cls-4" x="93.58" y="-1" width="50.61" height="54"/>
            </g>
          </g>
          <g class="cls-137">
            <g class="cls-138">
              <rect class="cls-4" x="150.29" y="-1" width="45.98" height="52.84"/>
            </g>
          </g>
          <g class="cls-141">
            <g class="cls-135">
              <rect class="cls-4" x="200.06" y="-1" width="43.66" height="52.84"/>
            </g>
          </g>
          <g class="cls-144">
            <g class="cls-139">
              <rect class="cls-4" x="270.65" y="-1" width="40.19" height="52.84"/>
            </g>
          </g>
          <g class="cls-143">
            <g class="cls-140">
              <rect class="cls-4" x="314.63" y="-1" width="45.98" height="52.84"/>
            </g>
          </g>
          <g class="cls-128">
            <g class="cls-127">
              <rect class="cls-4" x="369.02" y="-1" width="45.98" height="52.84"/>
            </g>
          </g>
        </g>
      </g>
      <g class="cls-104">
        <g class="cls-126">
          <g class="cls-125">
            <g class="cls-130">
              <rect class="cls-4" x="1" y="166" width="37.88" height="52.7"/>
            </g>
          </g>
          <g class="cls-129">
            <g class="cls-131">
              <rect class="cls-4" x="43.82" y="166" width="45.98" height="52.7"/>
            </g>
          </g>
          <g class="cls-132">
            <g class="cls-133">
              <rect class="cls-4" x="93.58" y="167.15" width="50.61" height="53.85"/>
            </g>
          </g>
          <g class="cls-134">
            <g class="cls-172">
              <rect class="cls-4" x="150.29" y="166" width="45.98" height="52.7"/>
            </g>
          </g>
          <g class="cls-173">
            <g class="cls-169">
              <rect class="cls-4" x="200.06" y="166" width="43.66" height="52.7"/>
            </g>
          </g>
          <g class="cls-174">
            <g class="cls-175">
              <rect class="cls-4" x="270.65" y="166" width="40.19" height="52.7"/>
            </g>
          </g>
          <g class="cls-171">
            <g class="cls-170">
              <rect class="cls-4" x="314.63" y="166" width="45.98" height="52.7"/>
            </g>
          </g>
          <g class="cls-176">
            <g class="cls-177">
              <rect class="cls-4" x="369.02" y="166" width="45.98" height="52.7"/>
            </g>
          </g>
        </g>
      </g>
      <g class="cls-104">
        <g class="cls-168">
          <g class="cls-163">
            <g class="cls-167">
              <rect class="cls-4" x="1" y="331" width="37.88" height="52.7"/>
            </g>
          </g>
          <g class="cls-161">
            <g class="cls-164">
              <rect class="cls-4" x="43.82" y="331" width="45.98" height="52.7"/>
            </g>
          </g>
          <g class="cls-165">
            <g class="cls-160">
              <rect class="cls-4" x="93.58" y="332.15" width="50.61" height="53.85"/>
            </g>
          </g>
          <g class="cls-158">
            <g class="cls-162">
              <rect class="cls-4" x="150.29" y="331" width="45.98" height="52.7"/>
            </g>
          </g>
          <g class="cls-159">
            <g class="cls-166">
              <rect class="cls-4" x="200.06" y="331" width="43.66" height="52.7"/>
            </g>
          </g>
          <g class="cls-118">
            <g class="cls-113">
              <rect class="cls-4" x="270.65" y="331" width="40.19" height="52.7"/>
            </g>
          </g>
          <g class="cls-111">
            <g class="cls-115">
              <rect class="cls-4" x="314.63" y="331" width="45.98" height="52.7"/>
            </g>
          </g>
          <g class="cls-105">
            <g class="cls-114">
              <rect class="cls-4" x="369.02" y="331" width="45.98" height="52.7"/>
            </g>
          </g>
        </g>
      </g>
      <g class="cls-104">
        <g class="cls-110">
          <g class="cls-116">
            <g class="cls-112">
              <rect class="cls-4" x="1" y="488" width="37.88" height="52.7"/>
            </g>
          </g>
          <g class="cls-117">
            <g class="cls-124">
              <rect class="cls-4" x="43.82" y="488" width="45.98" height="52.7"/>
            </g>
          </g>
          <g class="cls-119">
            <g class="cls-120">
              <rect class="cls-4" x="93.58" y="489.15" width="50.61" height="53.85"/>
            </g>
          </g>
          <g class="cls-106">
            <g class="cls-108">
              <rect class="cls-4" x="150.29" y="488" width="45.98" height="52.7"/>
            </g>
          </g>
          <g class="cls-122">
            <g class="cls-121">
              <rect class="cls-4" x="200.06" y="488" width="43.66" height="52.7"/>
            </g>
          </g>
          <g class="cls-107">
            <g class="cls-109">
              <rect class="cls-4" x="270.65" y="488" width="40.19" height="52.7"/>
            </g>
          </g>
          <g class="cls-123">
            <g class="cls-146">
              <rect class="cls-4" x="314.63" y="488" width="45.98" height="52.7"/>
            </g>
          </g>
          <g class="cls-145">
            <g class="cls-181">
              <rect class="cls-4" x="369.02" y="488" width="45.98" height="52.7"/>
            </g>
          </g>
        </g>
      </g>
      <g class="cls-104">
        <g class="cls-182">
          <g class="cls-178">
            <g class="cls-179">
              <rect class="cls-4" x="1" y="646" width="37.88" height="52.7"/>
            </g>
          </g>
          <g class="cls-147">
            <g class="cls-180">
              <rect class="cls-4" x="43.82" y="646" width="45.98" height="52.7"/>
            </g>
          </g>
          <g class="cls-183">
            <g class="cls-184">
              <rect class="cls-4" x="93.58" y="647.15" width="50.61" height="53.85"/>
            </g>
          </g>
          <g class="cls-153">
            <g class="cls-148">
              <rect class="cls-4" x="150.29" y="646" width="45.98" height="52.7"/>
            </g>
          </g>
          <g class="cls-149">
            <g class="cls-157">
              <rect class="cls-4" x="200.06" y="646" width="43.66" height="52.7"/>
            </g>
          </g>
          <g class="cls-151">
            <g class="cls-156">
              <rect class="cls-4" x="270.65" y="646" width="40.19" height="52.7"/>
            </g>
          </g>
          <g class="cls-155">
            <g class="cls-154">
              <rect class="cls-4" x="314.63" y="646" width="45.98" height="52.7"/>
            </g>
          </g>
          <g class="cls-150">
            <g class="cls-152">
              <rect class="cls-4" x="369.02" y="646" width="45.98" height="52.7"/>
            </g>
          </g>
        </g>
      </g>
    </g>
  </g>
</svg>