<?xml version="1.0" encoding="UTF-8"?>
<svg id="Layer_2" data-name="Layer 2" xmlns="http://www.w3.org/2000/svg" viewBox="0 0 363 249.83">
  <defs>
    <style>
      .cls-1 {
        fill: #fff;
      }

      .cls-2 {
        fill: #3ec6ac;
      }
    </style>
  </defs>
  <g id="Layer_1-2" data-name="Layer 1">
    <polygon class="cls-1" points="36.97 214.35 .68 214.35 .68 211.93 36.02 211.93 121.49 132.19 123.13 133.95 36.97 214.35"/>
    <polygon class="cls-1" points="46.41 249.83 0 249.48 .02 247.07 45.5 247.4 309.33 13.31 310.93 15.12 46.41 249.83"/>
    <rect class="cls-1" x="146.06" y="151.27" width="167.42" height="2.41" transform="translate(-43.84 186.82) rotate(-40.72)"/>
    <rect class="cls-1" x="283.2" y="128.63" width="90.95" height="2.41" transform="translate(-1.27 256.43) rotate(-42.55)"/>
    <rect class="cls-1" x="286.24" y="178.24" width="86.96" height="2.41" transform="translate(-34.09 271.96) rotate(-42.82)"/>
    <path class="cls-2" d="M287.1,180.96c-6.75,0-12.24-5.49-12.24-12.24s5.49-12.24,12.24-12.24,12.24,5.49,12.24,12.24-5.49,12.24-12.24,12.24Zm0-22.06c-5.41,0-9.82,4.41-9.82,9.82s4.41,9.82,9.82,9.82,9.82-4.41,9.82-9.82-4.41-9.82-9.82-9.82Z"/>
    <path class="cls-2" d="M301.28,102.43c-6.75,0-12.24-5.49-12.24-12.24s5.49-12.24,12.24-12.24,12.24,5.49,12.24,12.24-5.49,12.24-12.24,12.24Zm0-22.06c-5.41,0-9.82,4.41-9.82,9.82s4.41,9.82,9.82,9.82,9.82-4.41,9.82-9.82-4.41-9.82-9.82-9.82Z"/>
    <path class="cls-2" d="M157.22,226.03c-6.75,0-12.24-5.49-12.24-12.24s5.49-12.24,12.24-12.24,12.24,5.49,12.24,12.24-5.49,12.24-12.24,12.24Zm0-22.06c-5.41,0-9.82,4.41-9.82,9.82s4.41,9.82,9.82,9.82,9.82-4.41,9.82-9.82-4.41-9.82-9.82-9.82Z"/>
    <path class="cls-2" d="M130.79,137.2c-6.75,0-12.24-5.49-12.24-12.24s5.49-12.23,12.24-12.23,12.24,5.49,12.24,12.23-5.49,12.24-12.24,12.24Zm0-22.06c-5.41,0-9.82,4.41-9.82,9.82s4.41,9.82,9.82,9.82,9.82-4.41,9.82-9.82-4.41-9.82-9.82-9.82Z"/>
    <path class="cls-2" d="M299.12,223.46h-16.38v-15.73h16.38v15.73Zm-13.97-2.41h11.55v-10.9h-11.55v10.9Z"/>
    <path class="cls-2" d="M325.63,15.73h-16.38V0h16.38V15.73Zm-13.97-2.41h11.55V2.41h-11.55V13.32Z"/>
  </g>
</svg>